<svg width="312" height="118" viewBox="0 0 312 118" fill="none" xmlns="http://www.w3.org/2000/svg">
<path d="M134.694 50.718C134.309 50.718 133.844 50.7123 133.3 50.701C132.767 50.6897 132.223 50.667 131.668 50.633C131.124 50.6103 130.642 50.5707 130.223 50.514C130.2 49.7547 130.178 48.7857 130.155 47.607C130.132 46.4283 130.11 45.1817 130.087 43.867C130.076 42.5523 130.07 41.317 130.07 40.161C130.07 38.4157 130.081 36.523 130.104 34.483C130.138 32.443 130.172 30.3123 130.206 28.091C130.376 28.0797 130.642 28.074 131.005 28.074C131.379 28.0627 131.793 28.0513 132.246 28.04C132.699 28.0173 133.141 28.006 133.572 28.006C134.014 27.9947 134.382 27.989 134.677 27.989C134.734 29.2583 134.785 30.641 134.83 32.137C134.875 33.633 134.909 35.1347 134.932 36.642C134.955 38.1493 134.966 39.5773 134.966 40.926C134.966 41.572 134.96 42.2747 134.949 43.034C134.949 43.782 134.943 44.5413 134.932 45.312C134.921 46.0827 134.904 46.825 134.881 47.539C134.858 48.2417 134.83 48.8707 134.796 49.426C134.762 49.9813 134.728 50.412 134.694 50.718ZM164.35 46.876C164.032 47.4653 163.534 48.049 162.854 48.627C162.174 49.1937 161.335 49.6697 160.338 50.055C159.34 50.429 158.196 50.616 156.904 50.616C155.192 50.616 153.719 50.191 152.484 49.341C151.248 48.491 150.291 47.3577 149.611 45.941C148.942 44.513 148.608 42.9547 148.608 41.266C148.608 39.4527 148.948 37.8377 149.628 36.421C150.319 35.0043 151.294 33.888 152.552 33.072C153.821 32.256 155.34 31.848 157.108 31.848C158.173 31.848 159.136 32.0123 159.998 32.341C160.87 32.6697 161.635 33.1343 162.293 33.735C162.95 34.3243 163.483 35.0043 163.891 35.775L160.644 37.679C160.598 37.5657 160.508 37.4013 160.372 37.186C160.247 36.9593 160.054 36.7213 159.794 36.472C159.544 36.2227 159.21 36.013 158.791 35.843C158.383 35.673 157.873 35.588 157.261 35.588C156.354 35.588 155.589 35.792 154.966 36.2C154.354 36.5967 153.883 37.1633 153.555 37.9C153.237 38.6253 153.079 39.481 153.079 40.467C153.079 41.317 153.203 42.1557 153.453 42.983C153.702 43.799 154.116 44.479 154.694 45.023C155.283 45.5557 156.071 45.822 157.057 45.822C157.646 45.822 158.184 45.7257 158.672 45.533C159.159 45.329 159.573 45.0967 159.913 44.836C160.264 44.564 160.542 44.309 160.746 44.071C160.961 43.8217 161.097 43.6573 161.154 43.578L164.35 46.876ZM175.525 50.888C172.533 50.888 170.295 50.0833 168.81 48.474C167.326 46.8533 166.583 44.513 166.583 41.453C166.583 39.4583 166.963 37.7867 167.722 36.438C168.493 35.0893 169.558 34.075 170.918 33.395C172.29 32.7037 173.871 32.358 175.661 32.358C177.52 32.358 179.056 32.783 180.268 33.633C181.492 34.483 182.405 35.6617 183.005 37.169C183.617 38.6763 183.923 40.4217 183.923 42.405C183.923 44.1163 183.595 45.6067 182.937 46.876C182.28 48.1453 181.328 49.1313 180.081 49.834C178.835 50.5367 177.316 50.888 175.525 50.888ZM175.355 46.621C176.081 46.621 176.71 46.4963 177.242 46.247C177.786 45.9863 178.24 45.6293 178.602 45.176C178.965 44.7113 179.231 44.1787 179.401 43.578C179.583 42.9773 179.673 42.337 179.673 41.657C179.673 40.5237 179.515 39.5207 179.197 38.648C178.88 37.7753 178.404 37.0953 177.769 36.608C177.146 36.1093 176.364 35.86 175.423 35.86C174.449 35.86 173.638 36.1037 172.992 36.591C172.358 37.0783 171.887 37.73 171.581 38.546C171.275 39.362 171.122 40.2517 171.122 41.215C171.122 42.7903 171.479 44.088 172.193 45.108C172.919 46.1167 173.973 46.621 175.355 46.621ZM196.093 49.562C195.799 49.9133 195.249 50.259 194.444 50.599C193.64 50.9503 192.727 51.126 191.707 51.126C190.347 51.126 189.322 50.7973 188.63 50.14C187.95 49.4713 187.491 48.542 187.253 47.352C187.027 46.162 186.913 44.7793 186.913 43.204C186.913 42.0593 186.925 40.875 186.947 39.651C186.97 38.4157 186.998 37.1803 187.032 35.945C187.078 34.7097 187.123 33.5083 187.168 32.341C187.214 31.1623 187.259 30.0517 187.304 29.009C187.361 27.955 187.412 27.0087 187.457 26.17C188.171 26.1133 188.829 26.085 189.429 26.085C189.826 26.085 190.217 26.0963 190.602 26.119C190.988 26.1417 191.401 26.1757 191.843 26.221C191.787 27.1503 191.724 28.2043 191.656 29.383C191.6 30.5503 191.537 31.7573 191.469 33.004C191.413 34.2507 191.356 35.4747 191.299 36.676C191.243 37.866 191.197 38.9597 191.163 39.957C191.141 40.9543 191.129 41.7703 191.129 42.405C191.129 43.1757 191.163 43.9067 191.231 44.598C191.311 45.278 191.475 45.8333 191.724 46.264C191.974 46.6947 192.348 46.91 192.846 46.91C193.254 46.91 193.583 46.8193 193.832 46.638C194.082 46.4453 194.286 46.196 194.444 45.89C194.524 46.0147 194.643 46.2527 194.801 46.604C194.96 46.9553 195.13 47.3407 195.311 47.76C195.504 48.1793 195.674 48.559 195.821 48.899C195.969 49.239 196.059 49.46 196.093 49.562ZM206.404 50.888C203.412 50.888 201.174 50.0833 199.689 48.474C198.205 46.8533 197.462 44.513 197.462 41.453C197.462 39.4583 197.842 37.7867 198.601 36.438C199.372 35.0893 200.437 34.075 201.797 33.395C203.169 32.7037 204.75 32.358 206.54 32.358C208.399 32.358 209.935 32.783 211.147 33.633C212.371 34.483 213.284 35.6617 213.884 37.169C214.496 38.6763 214.802 40.4217 214.802 42.405C214.802 44.1163 214.474 45.6067 213.816 46.876C213.159 48.1453 212.207 49.1313 210.96 49.834C209.714 50.5367 208.195 50.888 206.404 50.888ZM206.234 46.621C206.96 46.621 207.589 46.4963 208.121 46.247C208.665 45.9863 209.119 45.6293 209.481 45.176C209.844 44.7113 210.11 44.1787 210.28 43.578C210.462 42.9773 210.552 42.337 210.552 41.657C210.552 40.5237 210.394 39.5207 210.076 38.648C209.759 37.7753 209.283 37.0953 208.648 36.608C208.025 36.1093 207.243 35.86 206.302 35.86C205.328 35.86 204.517 36.1037 203.871 36.591C203.237 37.0783 202.766 37.73 202.46 38.546C202.154 39.362 202.001 40.2517 202.001 41.215C202.001 42.7903 202.358 44.088 203.072 45.108C203.798 46.1167 204.852 46.621 206.234 46.621ZM221.787 35.282C222.07 34.7493 222.501 34.2507 223.079 33.786C223.657 33.3213 224.326 32.9417 225.085 32.647C225.856 32.3523 226.66 32.205 227.499 32.205C228.02 32.205 228.542 32.256 229.063 32.358C229.596 32.46 229.992 32.596 230.253 32.766L229.318 37.509C229.069 37.407 228.74 37.2937 228.332 37.169C227.924 37.0443 227.448 36.982 226.904 36.982C226.326 36.982 225.759 37.0783 225.204 37.271C224.66 37.4637 224.156 37.7357 223.691 38.087C223.226 38.4383 222.83 38.852 222.501 39.328C222.626 40.042 222.756 40.9317 222.892 41.997C223.039 43.051 223.175 44.139 223.3 45.261C223.425 46.3717 223.527 47.386 223.606 48.304C223.697 49.222 223.742 49.902 223.742 50.344C223.039 50.4347 222.223 50.4913 221.294 50.514C220.376 50.5367 219.498 50.5423 218.659 50.531C218.659 49.545 218.631 48.4513 218.574 47.25C218.529 46.0487 218.461 44.8077 218.37 43.527C218.279 42.235 218.166 40.96 218.03 39.702C217.894 38.4327 217.735 37.237 217.554 36.115C217.384 34.993 217.197 34.007 216.993 33.157C217.458 33.021 217.973 32.8907 218.54 32.766C219.118 32.6413 219.645 32.5393 220.121 32.46C220.597 32.3807 220.903 32.3353 221.039 32.324C221.175 32.664 221.328 33.1457 221.498 33.769C221.668 34.381 221.764 34.8853 221.787 35.282ZM238.055 50.446C237.873 50.4573 237.545 50.48 237.069 50.514C236.593 50.548 236.1 50.565 235.59 50.565C235.182 50.565 234.779 50.5537 234.383 50.531C233.986 50.5083 233.601 50.4743 233.227 50.429C233.283 50.1343 233.346 49.528 233.414 48.61C233.482 47.692 233.55 46.6097 233.618 45.363C233.697 44.1163 233.771 42.83 233.839 41.504C233.907 40.1667 233.958 38.92 233.992 37.764C234.037 36.5967 234.06 35.6673 234.06 34.976C234.252 34.9647 234.541 34.9477 234.927 34.925C235.312 34.9023 235.731 34.8853 236.185 34.874C236.638 34.8513 237.069 34.8343 237.477 34.823C237.885 34.8117 238.202 34.806 238.429 34.806C238.485 35.146 238.525 35.6787 238.548 36.404C238.582 37.1293 238.599 37.9453 238.599 38.852C238.599 39.8947 238.582 41.011 238.548 42.201C238.525 43.3797 238.491 44.53 238.446 45.652C238.4 46.774 238.338 47.7657 238.259 48.627C238.191 49.477 238.123 50.0833 238.055 50.446ZM236.44 32.46C235.499 32.46 234.723 32.1823 234.111 31.627C233.499 31.0717 233.193 30.352 233.193 29.468C233.193 28.8447 233.34 28.3177 233.635 27.887C233.929 27.445 234.315 27.1107 234.791 26.884C235.267 26.646 235.771 26.527 236.304 26.527C237.165 26.527 237.868 26.816 238.412 27.394C238.967 27.9607 239.245 28.686 239.245 29.57C239.245 30.3747 238.978 31.0603 238.446 31.627C237.924 32.1823 237.256 32.46 236.44 32.46ZM141.46 84.412C141.449 84.242 141.437 83.9927 141.426 83.664C141.415 83.3353 141.403 83.0067 141.392 82.678C141.392 82.338 141.392 82.0773 141.392 81.896C141.279 82.066 141.08 82.2927 140.797 82.576C140.514 82.8593 140.134 83.1427 139.658 83.426C139.193 83.7093 138.621 83.953 137.941 84.157C137.261 84.3497 136.462 84.446 135.544 84.446C134.093 84.446 132.841 84.106 131.787 83.426C130.744 82.7347 129.945 81.794 129.39 80.604C128.835 79.414 128.557 78.0597 128.557 76.541C128.557 75.0677 128.835 73.6963 129.39 72.427C129.957 71.1577 130.801 70.132 131.923 69.35C133.056 68.5567 134.473 68.16 136.173 68.16C137.08 68.16 137.896 68.262 138.621 68.466C139.358 68.67 139.975 68.9193 140.474 69.214C140.984 69.5087 141.341 69.7977 141.545 70.081C141.579 69.4917 141.619 68.806 141.664 68.024C141.721 67.242 141.783 66.426 141.851 65.576C141.919 64.726 141.981 63.9157 142.038 63.145C142.106 62.3743 142.168 61.7113 142.225 61.156C142.282 60.5893 142.321 60.204 142.344 60C142.933 60 143.591 60.034 144.316 60.102C145.053 60.1587 145.699 60.2607 146.254 60.408C146.05 63.0147 145.891 65.6213 145.778 68.228C145.676 70.8233 145.602 73.4697 145.557 76.167C145.523 78.853 145.506 81.6467 145.506 84.548C145.268 84.548 144.883 84.5423 144.35 84.531C143.829 84.5197 143.29 84.5027 142.735 84.48C142.191 84.4573 141.766 84.4347 141.46 84.412ZM136.768 80.111C137.357 80.111 137.89 80.0317 138.366 79.873C138.853 79.7143 139.284 79.516 139.658 79.278C140.043 79.0287 140.372 78.7737 140.644 78.513C140.916 78.241 141.131 77.9917 141.29 77.765C141.29 77.527 141.29 77.2153 141.29 76.83C141.29 76.4447 141.29 76.0423 141.29 75.623C141.301 75.2037 141.307 74.8127 141.307 74.45C141.318 74.0873 141.33 73.8097 141.341 73.617C141.092 73.379 140.729 73.141 140.253 72.903C139.788 72.6537 139.261 72.4497 138.672 72.291C138.094 72.121 137.493 72.036 136.87 72.036C135.589 72.036 134.598 72.4157 133.895 73.175C133.204 73.923 132.858 74.9203 132.858 76.167C132.858 77.459 133.192 78.4393 133.861 79.108C134.541 79.7767 135.51 80.111 136.768 80.111ZM154.98 84.446C154.799 84.4573 154.47 84.48 153.994 84.514C153.518 84.548 153.025 84.565 152.515 84.565C152.107 84.565 151.705 84.5537 151.308 84.531C150.912 84.5083 150.526 84.4743 150.152 84.429C150.209 84.1343 150.271 83.528 150.339 82.61C150.407 81.692 150.475 80.6097 150.543 79.363C150.623 78.1163 150.696 76.83 150.764 75.504C150.832 74.1667 150.883 72.92 150.917 71.764C150.963 70.5967 150.985 69.6673 150.985 68.976C151.178 68.9647 151.467 68.9477 151.852 68.925C152.238 68.9023 152.657 68.8853 153.11 68.874C153.564 68.8513 153.994 68.8343 154.402 68.823C154.81 68.8117 155.128 68.806 155.354 68.806C155.411 69.146 155.451 69.6787 155.473 70.404C155.507 71.1293 155.524 71.9453 155.524 72.852C155.524 73.8947 155.507 75.011 155.473 76.201C155.451 77.3797 155.417 78.53 155.371 79.652C155.326 80.774 155.264 81.7657 155.184 82.627C155.116 83.477 155.048 84.0833 154.98 84.446ZM153.365 66.46C152.425 66.46 151.648 66.1823 151.036 65.627C150.424 65.0717 150.118 64.352 150.118 63.468C150.118 62.8447 150.266 62.3177 150.56 61.887C150.855 61.445 151.24 61.1107 151.716 60.884C152.192 60.646 152.697 60.527 153.229 60.527C154.091 60.527 154.793 60.816 155.337 61.394C155.893 61.9607 156.17 62.686 156.17 63.57C156.17 64.3747 155.904 65.0603 155.371 65.627C154.85 66.1823 154.181 66.46 153.365 66.46ZM170.784 84.531C170.784 83.579 170.789 82.4117 170.801 81.029C170.812 79.6463 170.829 78.156 170.852 76.558C170.886 74.96 170.92 73.345 170.954 71.713C170.988 70.081 171.027 68.534 171.073 67.072C171.118 65.61 171.169 64.3293 171.226 63.23C171.713 63.1847 172.28 63.1507 172.926 63.128C173.583 63.094 174.229 63.0713 174.864 63.06C175.498 63.0373 176.037 63.026 176.479 63.026C176.921 63.0147 177.17 63.009 177.227 63.009C177.249 63.0543 177.334 63.3433 177.482 63.876C177.64 64.4087 177.844 65.1 178.094 65.95C178.343 66.8 178.609 67.735 178.893 68.755C179.187 69.775 179.482 70.8177 179.777 71.883C180.071 72.937 180.343 73.9343 180.593 74.875C180.853 75.8157 181.069 76.626 181.239 77.306C181.409 77.986 181.511 78.4507 181.545 78.7L181.001 78.768C181.125 78.428 181.307 77.8727 181.545 77.102C181.794 76.32 182.077 75.419 182.395 74.399C182.712 73.3677 183.035 72.2853 183.364 71.152C183.704 70.0187 184.027 68.9193 184.333 67.854C184.65 66.7773 184.922 65.8197 185.149 64.981C185.375 64.131 185.534 63.485 185.625 63.043C186.055 63.043 186.599 63.0543 187.257 63.077C187.914 63.0997 188.577 63.1337 189.246 63.179C189.914 63.213 190.464 63.2697 190.895 63.349C191.121 64.3917 191.28 65.746 191.371 67.412C191.461 69.0667 191.507 70.8233 191.507 72.682C191.507 74.1213 191.49 75.5833 191.456 77.068C191.422 78.5413 191.371 79.924 191.303 81.216C191.246 82.4967 191.184 83.5677 191.116 84.429C190.628 84.429 190.096 84.4233 189.518 84.412C188.951 84.3893 188.407 84.361 187.886 84.327C187.376 84.2817 186.968 84.2533 186.662 84.242C186.73 83.3693 186.786 82.3097 186.832 81.063C186.888 79.805 186.934 78.513 186.968 77.187C186.99 76.371 187.007 75.538 187.019 74.688C187.03 73.838 187.041 73.0617 187.053 72.359C187.064 71.645 187.07 71.101 187.07 70.727C186.945 71.203 186.758 71.832 186.509 72.614C186.271 73.396 185.999 74.2573 185.693 75.198C185.387 76.1387 185.064 77.0907 184.724 78.054C184.395 79.0173 184.078 79.9297 183.772 80.791C183.477 81.6523 183.211 82.3947 182.973 83.018C182.746 83.63 182.576 84.0493 182.463 84.276C182.315 84.2873 182.094 84.2987 181.8 84.31C181.516 84.31 181.295 84.31 181.137 84.31C180.853 84.31 180.564 84.2987 180.27 84.276C179.975 84.242 179.652 84.208 179.301 84.174C179.278 84.038 179.204 83.7263 179.08 83.239C178.955 82.7517 178.796 82.1397 178.604 81.403C178.411 80.6663 178.201 79.856 177.975 78.972C177.748 78.088 177.516 77.187 177.278 76.269C177.04 75.3397 176.802 74.4443 176.564 73.583C176.337 72.7217 176.127 71.9453 175.935 71.254C175.753 70.5513 175.6 69.996 175.476 69.588C175.476 70.676 175.476 71.8603 175.476 73.141C175.487 74.4103 175.493 75.674 175.493 76.932C175.493 78.19 175.493 79.3517 175.493 80.417C175.504 81.4823 175.51 82.3777 175.51 83.103C175.51 83.817 175.51 84.2647 175.51 84.446C175.158 84.4573 174.711 84.4687 174.167 84.48C173.623 84.4913 173.056 84.5027 172.467 84.514C171.877 84.5253 171.316 84.531 170.784 84.531ZM202.237 84.769C200.832 84.769 199.551 84.582 198.395 84.208C197.239 83.834 196.316 83.222 195.624 82.372C194.944 81.5107 194.604 80.3773 194.604 78.972C194.604 77.5667 194.995 76.4333 195.777 75.572C196.571 74.6993 197.619 74.0647 198.922 73.668C200.226 73.26 201.654 73.056 203.206 73.056C203.841 73.056 204.459 73.1013 205.059 73.192C205.66 73.2827 206.187 73.396 206.64 73.532C207.094 73.6567 207.411 73.7757 207.592 73.889C207.57 73.5603 207.507 73.2203 207.405 72.869C207.303 72.5177 207.15 72.2173 206.946 71.968C206.584 71.4127 206.068 70.948 205.399 70.574C204.742 70.2 203.886 70.013 202.832 70.013C201.756 70.013 200.821 70.251 200.027 70.727C199.234 71.203 198.639 71.7527 198.242 72.376L194.553 69.996C195.063 69.2707 195.743 68.6303 196.593 68.075C197.443 67.5197 198.412 67.089 199.5 66.783C200.588 66.4657 201.744 66.307 202.968 66.307C204.94 66.307 206.55 66.647 207.796 67.327C209.043 68.007 209.961 68.9363 210.55 70.115C210.834 70.693 211.066 71.3277 211.247 72.019C211.429 72.7103 211.548 73.5263 211.604 74.467C211.638 75.3397 211.667 76.1273 211.689 76.83C211.712 77.5327 211.74 78.173 211.774 78.751C211.797 79.5783 211.893 80.1167 212.063 80.366C212.245 80.604 212.488 80.723 212.794 80.723C213.123 80.723 213.406 80.6153 213.644 80.4C213.882 80.1847 214.03 79.89 214.086 79.516L215.803 82.372C215.701 83.0407 215.356 83.579 214.766 83.987C214.177 84.3837 213.457 84.582 212.607 84.582C211.961 84.582 211.366 84.4687 210.822 84.242C210.278 84.004 209.831 83.698 209.479 83.324C209.139 82.9387 208.941 82.5193 208.884 82.066C208.68 82.4853 208.278 82.9047 207.677 83.324C207.077 83.7433 206.317 84.089 205.399 84.361C204.481 84.633 203.427 84.769 202.237 84.769ZM203.189 81.216C203.79 81.216 204.396 81.1253 205.008 80.944C205.62 80.7627 206.176 80.5247 206.674 80.23C207.184 79.9353 207.587 79.6293 207.881 79.312C207.859 78.836 207.842 78.3827 207.83 77.952C207.83 77.5213 207.836 77.1417 207.847 76.813C207.575 76.711 207.048 76.592 206.266 76.456C205.496 76.3087 204.663 76.235 203.767 76.235C202.974 76.235 202.237 76.3313 201.557 76.524C200.889 76.7053 200.345 76.983 199.925 77.357C199.517 77.7197 199.313 78.1787 199.313 78.734C199.313 79.3687 199.472 79.8673 199.789 80.23C200.118 80.5927 200.571 80.8477 201.149 80.995C201.739 81.1423 202.419 81.216 203.189 81.216ZM228.486 81.93C228.282 82.3833 227.965 82.8707 227.534 83.392C227.115 83.902 226.56 84.3327 225.868 84.684C225.177 85.0467 224.316 85.228 223.284 85.228C221.947 85.228 220.865 84.9447 220.037 84.378C219.21 83.8113 218.604 83.0577 218.218 82.117C217.844 81.165 217.657 80.128 217.657 79.006C217.657 78.4053 217.663 77.748 217.674 77.034C217.697 76.3087 217.72 75.5777 217.742 74.841C217.765 74.093 217.788 73.3847 217.81 72.716C217.844 72.0473 217.873 71.458 217.895 70.948C217.929 70.4267 217.952 70.03 217.963 69.758C217 69.86 216.127 69.9733 215.345 70.098C214.563 70.2113 214.042 70.2963 213.781 70.353C213.679 69.8203 213.6 69.265 213.543 68.687C213.498 68.109 213.464 67.6047 213.441 67.174C213.419 66.7433 213.407 66.4713 213.407 66.358C214.053 66.2673 214.767 66.1823 215.549 66.103C216.331 66.0123 217.136 65.9443 217.963 65.899C217.952 65.5703 217.941 65.1057 217.929 64.505C217.929 63.9043 217.924 63.3547 217.912 62.856C217.901 62.414 217.878 61.9777 217.844 61.547C217.81 61.105 217.782 60.7423 217.759 60.459L222.179 60.102C222.179 60.2493 222.185 60.6007 222.196 61.156C222.219 61.7 222.23 62.3573 222.23 63.128C222.23 63.468 222.23 63.876 222.23 64.352C222.242 64.8167 222.247 65.2587 222.247 65.678C222.621 65.6553 223.058 65.6327 223.556 65.61C224.055 65.5873 224.452 65.5703 224.746 65.559C225.245 65.5363 225.704 65.525 226.123 65.525C226.543 65.525 226.894 65.5307 227.177 65.542C227.461 65.542 227.648 65.542 227.738 65.542C227.806 66.0067 227.846 66.6073 227.857 67.344C227.88 68.0693 227.891 68.6983 227.891 69.231C227.778 69.2197 227.404 69.2197 226.769 69.231C226.135 69.2423 225.511 69.2593 224.899 69.282C224.457 69.2933 223.976 69.316 223.454 69.35C222.933 69.384 222.508 69.418 222.179 69.452C222.168 69.7013 222.151 70.064 222.128 70.54C222.106 71.0047 222.083 71.5317 222.06 72.121C222.049 72.699 222.032 73.294 222.009 73.906C221.987 74.518 221.97 75.1017 221.958 75.657C221.947 76.2123 221.941 76.6883 221.941 77.085C221.941 77.8217 221.981 78.496 222.06 79.108C222.14 79.72 222.315 80.213 222.587 80.587C222.871 80.9497 223.307 81.131 223.896 81.131C224.293 81.131 224.622 81.0063 224.882 80.757C225.143 80.5077 225.353 80.2187 225.511 79.89C225.681 79.5613 225.823 79.2723 225.936 79.023C226.061 79.193 226.248 79.4253 226.497 79.72C226.747 80.0033 227.007 80.298 227.279 80.604C227.563 80.91 227.812 81.1877 228.027 81.437C228.254 81.675 228.407 81.8393 228.486 81.93ZM244.391 81.93C244.187 82.3833 243.869 82.8707 243.439 83.392C243.019 83.902 242.464 84.3327 241.773 84.684C241.081 85.0467 240.22 85.228 239.189 85.228C237.851 85.228 236.769 84.9447 235.942 84.378C235.114 83.8113 234.508 83.0577 234.123 82.117C233.749 81.165 233.562 80.128 233.562 79.006C233.562 78.4053 233.567 77.748 233.579 77.034C233.601 76.3087 233.624 75.5777 233.647 74.841C233.669 74.093 233.692 73.3847 233.715 72.716C233.749 72.0473 233.777 71.458 233.8 70.948C233.834 70.4267 233.856 70.03 233.868 69.758C232.904 69.86 232.032 69.9733 231.25 70.098C230.468 70.2113 229.946 70.2963 229.686 70.353C229.584 69.8203 229.504 69.265 229.448 68.687C229.402 68.109 229.368 67.6047 229.346 67.174C229.323 66.7433 229.312 66.4713 229.312 66.358C229.958 66.2673 230.672 66.1823 231.454 66.103C232.236 66.0123 233.04 65.9443 233.868 65.899C233.856 65.5703 233.845 65.1057 233.834 64.505C233.834 63.9043 233.828 63.3547 233.817 62.856C233.805 62.414 233.783 61.9777 233.749 61.547C233.715 61.105 233.686 60.7423 233.664 60.459L238.084 60.102C238.084 60.2493 238.089 60.6007 238.101 61.156C238.123 61.7 238.135 62.3573 238.135 63.128C238.135 63.468 238.135 63.876 238.135 64.352C238.146 64.8167 238.152 65.2587 238.152 65.678C238.526 65.6553 238.962 65.6327 239.461 65.61C239.959 65.5873 240.356 65.5703 240.651 65.559C241.149 65.5363 241.608 65.525 242.028 65.525C242.447 65.525 242.798 65.5307 243.082 65.542C243.365 65.542 243.552 65.542 243.643 65.542C243.711 66.0067 243.75 66.6073 243.762 67.344C243.784 68.0693 243.796 68.6983 243.796 69.231C243.682 69.2197 243.308 69.2197 242.674 69.231C242.039 69.2423 241.416 69.2593 240.804 69.282C240.362 69.2933 239.88 69.316 239.359 69.35C238.837 69.384 238.412 69.418 238.084 69.452C238.072 69.7013 238.055 70.064 238.033 70.54C238.01 71.0047 237.987 71.5317 237.965 72.121C237.953 72.699 237.936 73.294 237.914 73.906C237.891 74.518 237.874 75.1017 237.863 75.657C237.851 76.2123 237.846 76.6883 237.846 77.085C237.846 77.8217 237.885 78.496 237.965 79.108C238.044 79.72 238.22 80.213 238.492 80.587C238.775 80.9497 239.211 81.131 239.801 81.131C240.197 81.131 240.526 81.0063 240.787 80.757C241.047 80.5077 241.257 80.2187 241.416 79.89C241.586 79.5613 241.727 79.2723 241.841 79.023C241.965 79.193 242.152 79.4253 242.402 79.72C242.651 80.0033 242.912 80.298 243.184 80.604C243.467 80.91 243.716 81.1877 243.932 81.437C244.158 81.675 244.311 81.8393 244.391 81.93ZM262.114 81.165C261.83 81.5277 261.451 81.9073 260.975 82.304C260.51 82.6893 259.949 83.0463 259.292 83.375C258.634 83.6923 257.875 83.953 257.014 84.157C256.152 84.361 255.189 84.463 254.124 84.463C252.412 84.463 250.899 84.1287 249.585 83.46C248.281 82.7913 247.261 81.811 246.525 80.519C245.799 79.2157 245.437 77.6063 245.437 75.691C245.437 73.7983 245.822 72.155 246.593 70.761C247.363 69.3557 248.434 68.2677 249.806 67.497C251.177 66.7263 252.764 66.341 254.566 66.341C256.844 66.341 258.634 66.9983 259.938 68.313C261.241 69.6163 261.938 71.407 262.029 73.685C262.04 74.0817 262.034 74.45 262.012 74.79C262 75.1187 261.966 75.4757 261.91 75.861C261.751 75.8497 261.411 75.8383 260.89 75.827C260.368 75.8043 259.773 75.7873 259.105 75.776C258.436 75.7533 257.79 75.7363 257.167 75.725C256.555 75.7137 256.073 75.708 255.722 75.708C254.69 75.708 253.665 75.759 252.645 75.861C251.625 75.9517 250.752 76.0537 250.027 76.167C250.027 76.405 250.044 76.6373 250.078 76.864C250.112 77.0907 250.157 77.306 250.214 77.51C250.384 78.054 250.673 78.5243 251.081 78.921C251.5 79.3063 251.999 79.601 252.577 79.805C253.166 80.009 253.784 80.111 254.43 80.111C255.053 80.111 255.614 80.026 256.113 79.856C256.611 79.686 257.053 79.4707 257.439 79.21C257.835 78.9493 258.181 78.6773 258.476 78.394C258.77 78.1107 259.031 77.8613 259.258 77.646C259.326 77.7027 259.484 77.8557 259.734 78.105C259.983 78.3543 260.266 78.6547 260.584 79.006C260.901 79.3573 261.196 79.7257 261.468 80.111C261.751 80.4963 261.966 80.8477 262.114 81.165ZM250.163 73.294C250.775 73.192 251.511 73.1013 252.373 73.022C253.245 72.9427 254.248 72.903 255.382 72.903C255.982 72.903 256.504 72.9143 256.946 72.937C257.399 72.9483 257.716 72.9597 257.898 72.971C257.898 72.6877 257.858 72.3817 257.779 72.053C257.677 71.611 257.478 71.186 257.184 70.778C256.9 70.3587 256.526 70.0187 256.062 69.758C255.597 69.4973 255.036 69.367 254.379 69.367C253.563 69.367 252.843 69.5427 252.22 69.894C251.596 70.234 251.103 70.7043 250.741 71.305C250.389 71.8943 250.197 72.5573 250.163 73.294ZM274.139 84.888C271.147 84.888 268.908 84.0833 267.424 82.474C265.939 80.8533 265.197 78.513 265.197 75.453C265.197 73.4583 265.576 71.7867 266.336 70.438C267.106 69.0893 268.172 68.075 269.532 67.395C270.903 66.7037 272.484 66.358 274.275 66.358C276.133 66.358 277.669 66.783 278.882 67.633C280.106 68.483 281.018 69.6617 281.619 71.169C282.231 72.6763 282.537 74.4217 282.537 76.405C282.537 78.1163 282.208 79.6067 281.551 80.876C280.893 82.1453 279.941 83.1313 278.695 83.834C277.448 84.5367 275.929 84.888 274.139 84.888ZM273.969 80.621C274.694 80.621 275.323 80.4963 275.856 80.247C276.4 79.9863 276.853 79.6293 277.216 79.176C277.578 78.7113 277.845 78.1787 278.015 77.578C278.196 76.9773 278.287 76.337 278.287 75.657C278.287 74.5237 278.128 73.5207 277.811 72.648C277.493 71.7753 277.017 71.0953 276.383 70.608C275.759 70.1093 274.977 69.86 274.037 69.86C273.062 69.86 272.252 70.1037 271.606 70.591C270.971 71.0783 270.501 71.73 270.195 72.546C269.889 73.362 269.736 74.2517 269.736 75.215C269.736 76.7903 270.093 78.088 270.807 79.108C271.532 80.1167 272.586 80.621 273.969 80.621Z" fill="#39454C"/>
<path d="M58.839 93.4035C57.2617 99.9359 75.6379 114.721 92.6728 116.463C113.967 118.64 138.823 105.463 154.673 105.463C170.673 105.463 222.561 118.288 256.473 115.178C290.385 112.067 310.673 93.4035 310.673 78.4629" stroke="#39454C" stroke-width="2" stroke-linecap="round" stroke-linejoin="round"/>
<path d="M85.7869 74.0391C101.182 67.6838 113.378 58.1962 114.837 41.1179C116.436 22.4098 104.141 6.0788 87.3768 4.6415C70.6122 3.20425 55.7258 17.205 54.1273 35.9131C52.7583 51.9348 62.3509 62.5254 74.8212 71.4252C72.1948 72.8824 69.7418 74.4621 69.2263 75.4681C68.0975 77.671 69.9744 80.4672 71.8795 81.3631C73.4142 82.0847 76.115 81.4623 78.049 81.0166C78.5156 80.9091 78.9376 80.8118 79.2878 80.7462C80.3913 80.5395 82.0356 81.2197 83.6047 81.8687C84.5973 82.2792 85.5599 82.6774 86.3363 82.8306C88.3401 83.2262 89.904 81.4557 90.264 78.7545C90.446 77.3823 88.1975 75.5488 85.7869 74.0391Z" fill="#E58F91"/>
<path d="M48.7477 87.7494C53.9083 74.7978 55.3329 62.1584 45.966 52.1284C35.7053 41.1413 18.7784 40.0481 8.15891 49.6867C-2.46066 59.3253 -2.75149 76.0457 7.50931 87.0328C16.2967 96.4423 28.2165 96.1463 40.8002 93.1597C40.1429 95.5683 39.6599 97.9353 39.9616 98.7923C40.6222 100.67 43.3876 100.999 45.0326 100.295C46.3578 99.7283 47.5577 97.7193 48.417 96.2803C48.6243 95.9333 48.8118 95.6193 48.9765 95.3673C49.4952 94.5713 50.8593 93.9142 52.161 93.287C52.9845 92.8901 53.783 92.5053 54.3267 92.1053C55.7299 91.0727 55.5812 89.1561 54.1747 87.4896C53.4603 86.6432 51.0542 87.0596 48.7477 87.7494Z" fill="#E7CF70"/>
<path d="M62.032 84.9975C76.8588 70.7615 86.6992 54.1489 81.0538 33.0613C74.8699 9.96115 53.8684 -4.31496 34.1459 1.17461C14.4235 6.66416 3.44845 29.8407 9.63255 52.9408C14.9286 72.7238 30.3938 81.2851 48.4154 86.5829C46.0455 89.4585 43.9257 92.4061 43.7687 93.8331C43.4249 96.9577 46.7607 99.5007 49.3153 99.7537C51.3734 99.9587 54.1853 98.0507 56.1987 96.6847C56.6846 96.3557 57.1239 96.0576 57.495 95.8287C58.6642 95.1057 60.8293 95.2137 62.8955 95.3157C64.2025 95.3807 65.4699 95.4437 66.4205 95.2937C68.8736 94.9057 69.8984 92.1116 69.1525 88.7207C68.7736 86.9983 65.4256 85.7691 62.032 84.9975Z" fill="#97D4ED"/>
<path d="M72.6782 90.7863C82.306 90.0517 90.7203 87.0226 94.5443 77.8984C98.7343 67.9035 94.8283 56.7259 85.8214 52.9327C76.8143 49.1394 66.1164 54.1669 61.927 64.1618C58.3392 72.7216 61.7666 80.2603 67.0825 87.3853C65.3741 87.7156 63.7398 88.1443 63.2773 88.6049C62.2644 89.6133 62.807 91.4862 63.7011 92.3198C64.4214 92.9914 66.0234 93.1332 67.1705 93.2347C67.4473 93.2592 67.6976 93.2813 67.9026 93.308C68.5487 93.3921 69.3369 94.0605 70.089 94.6978C70.5648 95.1018 71.0262 95.4928 71.428 95.7158C72.465 96.2928 73.6419 95.5998 74.318 94.1798C74.6614 93.4584 73.7431 92.0479 72.6782 90.7863Z" fill="#B0D066"/>
<g filter="url(#filter0_d)">
<path d="M43.6729 89.7344C46.4985 87.8132 53.3098 83.9248 57.9498 83.7404C62.5898 83.556 69.6985 87.6595 72.6729 89.7344" stroke="#39454C" stroke-width="2" stroke-linecap="round" stroke-linejoin="round"/>
</g>
<defs>
<filter id="filter0_d" x="38.6729" y="82.7344" width="39.0002" height="16.0001" filterUnits="userSpaceOnUse" color-interpolation-filters="sRGB">
<feFlood flood-opacity="0" result="BackgroundImageFix"/>
<feColorMatrix in="SourceAlpha" type="matrix" values="0 0 0 0 0 0 0 0 0 0 0 0 0 0 0 0 0 0 127 0"/>
<feOffset dy="4"/>
<feGaussianBlur stdDeviation="2"/>
<feColorMatrix type="matrix" values="0 0 0 0 0 0 0 0 0 0 0 0 0 0 0 0 0 0 0.25 0"/>
<feBlend mode="normal" in2="BackgroundImageFix" result="effect1_dropShadow"/>
<feBlend mode="normal" in="SourceGraphic" in2="effect1_dropShadow" result="shape"/>
</filter>
</defs>
</svg>
