<svg width="427" height="122" viewBox="0 0 427 122" fill="none" xmlns="http://www.w3.org/2000/svg">
<path d="M69.7056 98.8859C67.5593 105.382 80.8193 118.808 104 120.54C132.976 122.705 188.537 97.3391 210 98.8859C231.463 100.433 292.492 123.633 338.639 120.54C384.785 117.446 395.351 79.7138 426 91.1523" stroke="#39454C" stroke-width="2" stroke-linecap="round" stroke-linejoin="round"/>
<path d="M96.1141 79.5762C111.509 73.2209 123.705 63.7333 125.164 46.655C126.763 27.9469 114.468 11.6159 97.704 10.1786C80.9394 8.74136 66.053 22.7421 64.4545 41.4502C63.0855 57.4719 72.6781 68.0625 85.1484 76.9623C82.522 78.4195 80.069 79.9992 79.5535 81.0052C78.4247 83.2081 80.3016 86.0043 82.2067 86.9002C83.7414 87.6218 86.4422 86.9994 88.3762 86.5537C88.8428 86.4462 89.2648 86.3489 89.615 86.2833C90.7185 86.0766 92.3628 86.7568 93.9319 87.4058C94.9245 87.8163 95.8871 88.2145 96.6635 88.3677C98.6673 88.7633 100.231 86.9928 100.591 84.2916C100.773 82.9194 98.5247 81.0859 96.1141 79.5762Z" fill="#E58F91"/>
<path d="M59.0749 93.2865C64.2355 80.3349 65.6601 67.6955 56.2932 57.6655C46.0325 46.6784 29.1056 45.5852 18.4861 55.2238C7.86649 64.8624 7.57566 81.5828 17.8365 92.5699C26.6239 101.979 38.5437 101.683 51.1274 98.6968C50.4701 101.105 49.9871 103.472 50.2888 104.329C50.9494 106.207 53.7148 106.536 55.3598 105.832C56.685 105.265 57.8849 103.256 58.7442 101.817C58.9515 101.47 59.139 101.156 59.3037 100.904C59.8224 100.108 61.1865 99.4513 62.4882 98.8241C63.3117 98.4272 64.1102 98.0424 64.6539 97.6424C66.0571 96.6098 65.9084 94.6932 64.5019 93.0267C63.7875 92.1803 61.3814 92.5967 59.0749 93.2865Z" fill="#E7CF70"/>
<path d="M72.3592 90.5346C87.186 76.2986 97.0263 59.686 91.381 38.5984C85.197 15.4983 64.1956 1.22215 44.4731 6.71172C24.7507 12.2013 13.7756 35.3778 19.9597 58.4779C25.2558 78.2609 40.721 86.8222 58.7426 92.12C56.3727 94.9956 54.2529 97.9432 54.0959 99.3702C53.7521 102.495 57.0879 105.038 59.6425 105.291C61.7006 105.496 64.5125 103.588 66.5259 102.222C67.0118 101.893 67.4511 101.595 67.8222 101.366C68.9914 100.643 71.1565 100.751 73.2227 100.853C74.5297 100.918 75.7971 100.981 76.7477 100.831C79.2008 100.443 80.2256 97.6487 79.4796 94.2578C79.1007 92.5354 75.7528 91.3062 72.3592 90.5346Z" fill="#97D4ED"/>
<path d="M83.0054 96.3234C92.6332 95.5888 101.047 92.5597 104.871 83.4355C109.061 73.4406 105.155 62.263 96.1486 58.4698C87.1415 54.6765 76.4436 59.704 72.2542 69.6989C68.6664 78.2587 72.0938 85.7974 77.4097 92.9224C75.7013 93.2527 74.067 93.6814 73.6045 94.142C72.5916 95.1504 73.1342 97.0233 74.0283 97.8569C74.7486 98.5285 76.3506 98.6703 77.4977 98.7718C77.7745 98.7963 78.0248 98.8184 78.2298 98.8451C78.8759 98.9292 79.6641 99.5976 80.4162 100.235C80.892 100.639 81.3534 101.03 81.7552 101.253C82.7922 101.83 83.9691 101.137 84.6452 99.7169C84.9886 98.9955 84.0703 97.585 83.0054 96.3234Z" fill="#B0D066"/>
<path d="M54 95.2715C56.8256 93.3503 63.6369 89.4619 68.2769 89.2775C72.9169 89.0931 80.0256 93.1966 83 95.2715" stroke="#39454C" stroke-width="2" stroke-linecap="round" stroke-linejoin="round"/>
<path d="M138.021 75.2551C137.636 75.2551 137.171 75.2494 136.627 75.2381C136.094 75.2268 135.55 75.2041 134.995 75.1701C134.451 75.1474 133.969 75.1078 133.55 75.0511C133.527 74.2918 133.505 73.3228 133.482 72.1441C133.459 70.9654 133.437 69.7188 133.414 68.4041C133.403 67.0894 133.397 65.8541 133.397 64.6981C133.397 62.9528 133.408 61.0601 133.431 59.0201C133.465 56.9801 133.499 54.8494 133.533 52.6281C133.703 52.6168 133.969 52.6111 134.332 52.6111C134.706 52.5998 135.12 52.5884 135.573 52.5771C136.026 52.5544 136.468 52.5431 136.899 52.5431C137.341 52.5318 137.709 52.5261 138.004 52.5261C138.061 53.7954 138.112 55.1781 138.157 56.6741C138.202 58.1701 138.236 59.6718 138.259 61.1791C138.282 62.6864 138.293 64.1144 138.293 65.4631C138.293 66.1091 138.287 66.8118 138.276 67.5711C138.276 68.3191 138.27 69.0784 138.259 69.8491C138.248 70.6198 138.231 71.3621 138.208 72.0761C138.185 72.7788 138.157 73.4078 138.123 73.9631C138.089 74.5184 138.055 74.9491 138.021 75.2551ZM167.677 71.4131C167.359 72.0024 166.861 72.5861 166.181 73.1641C165.501 73.7308 164.662 74.2068 163.665 74.5921C162.667 74.9661 161.523 75.1531 160.231 75.1531C158.519 75.1531 157.046 74.7281 155.811 73.8781C154.575 73.0281 153.618 71.8948 152.938 70.4781C152.269 69.0501 151.935 67.4918 151.935 65.8031C151.935 63.9898 152.275 62.3748 152.955 60.9581C153.646 59.5414 154.621 58.4251 155.879 57.6091C157.148 56.7931 158.667 56.3851 160.435 56.3851C161.5 56.3851 162.463 56.5494 163.325 56.8781C164.197 57.2068 164.962 57.6714 165.62 58.2721C166.277 58.8614 166.81 59.5414 167.218 60.3121L163.971 62.2161C163.925 62.1028 163.835 61.9384 163.699 61.7231C163.574 61.4964 163.381 61.2584 163.121 61.0091C162.871 60.7598 162.537 60.5501 162.118 60.3801C161.71 60.2101 161.2 60.1251 160.588 60.1251C159.681 60.1251 158.916 60.3291 158.293 60.7371C157.681 61.1338 157.21 61.7004 156.882 62.4371C156.564 63.1624 156.406 64.0181 156.406 65.0041C156.406 65.8541 156.53 66.6928 156.78 67.5201C157.029 68.3361 157.443 69.0161 158.021 69.5601C158.61 70.0928 159.398 70.3591 160.384 70.3591C160.973 70.3591 161.511 70.2628 161.999 70.0701C162.486 69.8661 162.9 69.6338 163.24 69.3731C163.591 69.1011 163.869 68.8461 164.073 68.6081C164.288 68.3588 164.424 68.1944 164.481 68.1151L167.677 71.4131ZM178.852 75.4251C175.86 75.4251 173.622 74.6204 172.137 73.0111C170.653 71.3904 169.91 69.0501 169.91 65.9901C169.91 63.9954 170.29 62.3238 171.049 60.9751C171.82 59.6264 172.885 58.6121 174.245 57.9321C175.617 57.2408 177.198 56.8951 178.988 56.8951C180.847 56.8951 182.383 57.3201 183.595 58.1701C184.819 59.0201 185.732 60.1988 186.332 61.7061C186.944 63.2134 187.25 64.9588 187.25 66.9421C187.25 68.6534 186.922 70.1438 186.264 71.4131C185.607 72.6824 184.655 73.6684 183.408 74.3711C182.162 75.0738 180.643 75.4251 178.852 75.4251ZM178.682 71.1581C179.408 71.1581 180.037 71.0334 180.569 70.7841C181.113 70.5234 181.567 70.1664 181.929 69.7131C182.292 69.2484 182.558 68.7158 182.728 68.1151C182.91 67.5144 183 66.8741 183 66.1941C183 65.0608 182.842 64.0578 182.524 63.1851C182.207 62.3124 181.731 61.6324 181.096 61.1451C180.473 60.6464 179.691 60.3971 178.75 60.3971C177.776 60.3971 176.965 60.6408 176.319 61.1281C175.685 61.6154 175.214 62.2671 174.908 63.0831C174.602 63.8991 174.449 64.7888 174.449 65.7521C174.449 67.3274 174.806 68.6251 175.52 69.6451C176.246 70.6538 177.3 71.1581 178.682 71.1581ZM199.42 74.0991C199.126 74.4504 198.576 74.7961 197.771 75.1361C196.967 75.4874 196.054 75.6631 195.034 75.6631C193.674 75.6631 192.649 75.3344 191.957 74.6771C191.277 74.0084 190.818 73.0791 190.58 71.8891C190.354 70.6991 190.24 69.3164 190.24 67.7411C190.24 66.5964 190.252 65.4121 190.274 64.1881C190.297 62.9528 190.325 61.7174 190.359 60.4821C190.405 59.2468 190.45 58.0454 190.495 56.8781C190.541 55.6994 190.586 54.5888 190.631 53.5461C190.688 52.4921 190.739 51.5458 190.784 50.7071C191.498 50.6504 192.156 50.6221 192.756 50.6221C193.153 50.6221 193.544 50.6334 193.929 50.6561C194.315 50.6788 194.728 50.7128 195.17 50.7581C195.114 51.6874 195.051 52.7414 194.983 53.9201C194.927 55.0874 194.864 56.2944 194.796 57.5411C194.74 58.7878 194.683 60.0118 194.626 61.2131C194.57 62.4031 194.524 63.4968 194.49 64.4941C194.468 65.4914 194.456 66.3074 194.456 66.9421C194.456 67.7128 194.49 68.4438 194.558 69.1351C194.638 69.8151 194.802 70.3704 195.051 70.8011C195.301 71.2318 195.675 71.4471 196.173 71.4471C196.581 71.4471 196.91 71.3564 197.159 71.1751C197.409 70.9824 197.613 70.7331 197.771 70.4271C197.851 70.5518 197.97 70.7898 198.128 71.1411C198.287 71.4924 198.457 71.8778 198.638 72.2971C198.831 72.7164 199.001 73.0961 199.148 73.4361C199.296 73.7761 199.386 73.9971 199.42 74.0991ZM209.731 75.4251C206.739 75.4251 204.501 74.6204 203.016 73.0111C201.532 71.3904 200.789 69.0501 200.789 65.9901C200.789 63.9954 201.169 62.3238 201.928 60.9751C202.699 59.6264 203.764 58.6121 205.124 57.9321C206.496 57.2408 208.077 56.8951 209.867 56.8951C211.726 56.8951 213.262 57.3201 214.474 58.1701C215.698 59.0201 216.611 60.1988 217.211 61.7061C217.823 63.2134 218.129 64.9588 218.129 66.9421C218.129 68.6534 217.801 70.1438 217.143 71.4131C216.486 72.6824 215.534 73.6684 214.287 74.3711C213.041 75.0738 211.522 75.4251 209.731 75.4251ZM209.561 71.1581C210.287 71.1581 210.916 71.0334 211.448 70.7841C211.992 70.5234 212.446 70.1664 212.808 69.7131C213.171 69.2484 213.437 68.7158 213.607 68.1151C213.789 67.5144 213.879 66.8741 213.879 66.1941C213.879 65.0608 213.721 64.0578 213.403 63.1851C213.086 62.3124 212.61 61.6324 211.975 61.1451C211.352 60.6464 210.57 60.3971 209.629 60.3971C208.655 60.3971 207.844 60.6408 207.198 61.1281C206.564 61.6154 206.093 62.2671 205.787 63.0831C205.481 63.8991 205.328 64.7888 205.328 65.7521C205.328 67.3274 205.685 68.6251 206.399 69.6451C207.125 70.6538 208.179 71.1581 209.561 71.1581ZM225.114 59.8191C225.397 59.2864 225.828 58.7878 226.406 58.3231C226.984 57.8584 227.653 57.4788 228.412 57.1841C229.183 56.8894 229.987 56.7421 230.826 56.7421C231.347 56.7421 231.869 56.7931 232.39 56.8951C232.923 56.9971 233.319 57.1331 233.58 57.3031L232.645 62.0461C232.396 61.9441 232.067 61.8308 231.659 61.7061C231.251 61.5814 230.775 61.5191 230.231 61.5191C229.653 61.5191 229.086 61.6154 228.531 61.8081C227.987 62.0008 227.483 62.2728 227.018 62.6241C226.553 62.9754 226.157 63.3891 225.828 63.8651C225.953 64.5791 226.083 65.4688 226.219 66.5341C226.366 67.5881 226.502 68.6761 226.627 69.7981C226.752 70.9088 226.854 71.9231 226.933 72.8411C227.024 73.7591 227.069 74.4391 227.069 74.8811C226.366 74.9718 225.55 75.0284 224.621 75.0511C223.703 75.0738 222.825 75.0794 221.986 75.0681C221.986 74.0821 221.958 72.9884 221.901 71.7871C221.856 70.5858 221.788 69.3448 221.697 68.0641C221.606 66.7721 221.493 65.4971 221.357 64.2391C221.221 62.9698 221.062 61.7741 220.881 60.6521C220.711 59.5301 220.524 58.5441 220.32 57.6941C220.785 57.5581 221.3 57.4278 221.867 57.3031C222.445 57.1784 222.972 57.0764 223.448 56.9971C223.924 56.9178 224.23 56.8724 224.366 56.8611C224.502 57.2011 224.655 57.6828 224.825 58.3061C224.995 58.9181 225.091 59.4224 225.114 59.8191ZM241.382 74.9831C241.2 74.9944 240.872 75.0171 240.396 75.0511C239.92 75.0851 239.427 75.1021 238.917 75.1021C238.509 75.1021 238.106 75.0908 237.71 75.0681C237.313 75.0454 236.928 75.0114 236.554 74.9661C236.61 74.6714 236.673 74.0651 236.741 73.1471C236.809 72.2291 236.877 71.1468 236.945 69.9001C237.024 68.6534 237.098 67.3671 237.166 66.0411C237.234 64.7038 237.285 63.4571 237.319 62.3011C237.364 61.1338 237.387 60.2044 237.387 59.5131C237.579 59.5018 237.868 59.4848 238.254 59.4621C238.639 59.4394 239.058 59.4224 239.512 59.4111C239.965 59.3884 240.396 59.3714 240.804 59.3601C241.212 59.3488 241.529 59.3431 241.756 59.3431C241.812 59.6831 241.852 60.2158 241.875 60.9411C241.909 61.6664 241.926 62.4824 241.926 63.3891C241.926 64.4318 241.909 65.5481 241.875 66.7381C241.852 67.9168 241.818 69.0671 241.773 70.1891C241.727 71.3111 241.665 72.3028 241.586 73.1641C241.518 74.0141 241.45 74.6204 241.382 74.9831ZM239.767 56.9971C238.826 56.9971 238.05 56.7194 237.438 56.1641C236.826 55.6088 236.52 54.8891 236.52 54.0051C236.52 53.3818 236.667 52.8548 236.962 52.4241C237.256 51.9821 237.642 51.6478 238.118 51.4211C238.594 51.1831 239.098 51.0641 239.631 51.0641C240.492 51.0641 241.195 51.3531 241.739 51.9311C242.294 52.4978 242.572 53.2231 242.572 54.1071C242.572 54.9118 242.305 55.5974 241.773 56.1641C241.251 56.7194 240.583 56.9971 239.767 56.9971ZM269 74.9491C268.989 74.7791 268.977 74.5298 268.966 74.2011C268.955 73.8724 268.943 73.5438 268.932 73.2151C268.932 72.8751 268.932 72.6144 268.932 72.4331C268.819 72.6031 268.62 72.8298 268.337 73.1131C268.054 73.3964 267.674 73.6798 267.198 73.9631C266.733 74.2464 266.161 74.4901 265.481 74.6941C264.801 74.8868 264.002 74.9831 263.084 74.9831C261.633 74.9831 260.381 74.6431 259.327 73.9631C258.284 73.2718 257.485 72.3311 256.93 71.1411C256.375 69.9511 256.097 68.5968 256.097 67.0781C256.097 65.6048 256.375 64.2334 256.93 62.9641C257.497 61.6948 258.341 60.6691 259.463 59.8871C260.596 59.0938 262.013 58.6971 263.713 58.6971C264.62 58.6971 265.436 58.7991 266.161 59.0031C266.898 59.2071 267.515 59.4564 268.014 59.7511C268.524 60.0458 268.881 60.3348 269.085 60.6181C269.119 60.0288 269.159 59.3431 269.204 58.5611C269.261 57.7791 269.323 56.9631 269.391 56.1131C269.459 55.2631 269.521 54.4528 269.578 53.6821C269.646 52.9114 269.708 52.2484 269.765 51.6931C269.822 51.1264 269.861 50.7411 269.884 50.5371C270.473 50.5371 271.131 50.5711 271.856 50.6391C272.593 50.6958 273.239 50.7978 273.794 50.9451C273.59 53.5518 273.431 56.1584 273.318 58.7651C273.216 61.3604 273.142 64.0068 273.097 66.7041C273.063 69.3901 273.046 72.1838 273.046 75.0851C272.808 75.0851 272.423 75.0794 271.89 75.0681C271.369 75.0568 270.83 75.0398 270.275 75.0171C269.731 74.9944 269.306 74.9718 269 74.9491ZM264.308 70.6481C264.897 70.6481 265.43 70.5688 265.906 70.4101C266.393 70.2514 266.824 70.0531 267.198 69.8151C267.583 69.5658 267.912 69.3108 268.184 69.0501C268.456 68.7781 268.671 68.5288 268.83 68.3021C268.83 68.0641 268.83 67.7524 268.83 67.3671C268.83 66.9818 268.83 66.5794 268.83 66.1601C268.841 65.7408 268.847 65.3498 268.847 64.9871C268.858 64.6244 268.87 64.3468 268.881 64.1541C268.632 63.9161 268.269 63.6781 267.793 63.4401C267.328 63.1908 266.801 62.9868 266.212 62.8281C265.634 62.6581 265.033 62.5731 264.41 62.5731C263.129 62.5731 262.138 62.9528 261.435 63.7121C260.744 64.4601 260.398 65.4574 260.398 66.7041C260.398 67.9961 260.732 68.9764 261.401 69.6451C262.081 70.3138 263.05 70.6481 264.308 70.6481ZM282.52 74.9831C282.339 74.9944 282.01 75.0171 281.534 75.0511C281.058 75.0851 280.565 75.1021 280.055 75.1021C279.647 75.1021 279.245 75.0908 278.848 75.0681C278.452 75.0454 278.066 75.0114 277.692 74.9661C277.749 74.6714 277.811 74.0651 277.879 73.1471C277.947 72.2291 278.015 71.1468 278.083 69.9001C278.163 68.6534 278.236 67.3671 278.304 66.0411C278.372 64.7038 278.423 63.4571 278.457 62.3011C278.503 61.1338 278.525 60.2044 278.525 59.5131C278.718 59.5018 279.007 59.4848 279.392 59.4621C279.778 59.4394 280.197 59.4224 280.65 59.4111C281.104 59.3884 281.534 59.3714 281.942 59.3601C282.35 59.3488 282.668 59.3431 282.894 59.3431C282.951 59.6831 282.991 60.2158 283.013 60.9411C283.047 61.6664 283.064 62.4824 283.064 63.3891C283.064 64.4318 283.047 65.5481 283.013 66.7381C282.991 67.9168 282.957 69.0671 282.911 70.1891C282.866 71.3111 282.804 72.3028 282.724 73.1641C282.656 74.0141 282.588 74.6204 282.52 74.9831ZM280.905 56.9971C279.965 56.9971 279.188 56.7194 278.576 56.1641C277.964 55.6088 277.658 54.8891 277.658 54.0051C277.658 53.3818 277.806 52.8548 278.1 52.4241C278.395 51.9821 278.78 51.6478 279.256 51.4211C279.732 51.1831 280.237 51.0641 280.769 51.0641C281.631 51.0641 282.333 51.3531 282.877 51.9311C283.433 52.4978 283.71 53.2231 283.71 54.1071C283.71 54.9118 283.444 55.5974 282.911 56.1641C282.39 56.7194 281.721 56.9971 280.905 56.9971ZM298.324 75.0681C298.324 74.1161 298.329 72.9488 298.341 71.5661C298.352 70.1834 298.369 68.6931 298.392 67.0951C298.426 65.4971 298.46 63.8821 298.494 62.2501C298.528 60.6181 298.567 59.0711 298.613 57.6091C298.658 56.1471 298.709 54.8664 298.766 53.7671C299.253 53.7218 299.82 53.6878 300.466 53.6651C301.123 53.6311 301.769 53.6084 302.404 53.5971C303.038 53.5744 303.577 53.5631 304.019 53.5631C304.461 53.5518 304.71 53.5461 304.767 53.5461C304.789 53.5914 304.874 53.8804 305.022 54.4131C305.18 54.9458 305.384 55.6371 305.634 56.4871C305.883 57.3371 306.149 58.2721 306.433 59.2921C306.727 60.3121 307.022 61.3548 307.317 62.4201C307.611 63.4741 307.883 64.4714 308.133 65.4121C308.393 66.3528 308.609 67.1631 308.779 67.8431C308.949 68.5231 309.051 68.9878 309.085 69.2371L308.541 69.3051C308.665 68.9651 308.847 68.4098 309.085 67.6391C309.334 66.8571 309.617 65.9561 309.935 64.9361C310.252 63.9048 310.575 62.8224 310.904 61.6891C311.244 60.5558 311.567 59.4564 311.873 58.3911C312.19 57.3144 312.462 56.3568 312.689 55.5181C312.915 54.6681 313.074 54.0221 313.165 53.5801C313.595 53.5801 314.139 53.5914 314.797 53.6141C315.454 53.6368 316.117 53.6708 316.786 53.7161C317.454 53.7501 318.004 53.8068 318.435 53.8861C318.661 54.9288 318.82 56.2831 318.911 57.9491C319.001 59.6038 319.047 61.3604 319.047 63.2191C319.047 64.6584 319.03 66.1204 318.996 67.6051C318.962 69.0784 318.911 70.4611 318.843 71.7531C318.786 73.0338 318.724 74.1048 318.656 74.9661C318.168 74.9661 317.636 74.9604 317.058 74.9491C316.491 74.9264 315.947 74.8981 315.426 74.8641C314.916 74.8188 314.508 74.7904 314.202 74.7791C314.27 73.9064 314.326 72.8468 314.372 71.6001C314.428 70.3421 314.474 69.0501 314.508 67.7241C314.53 66.9081 314.547 66.0751 314.559 65.2251C314.57 64.3751 314.581 63.5988 314.593 62.8961C314.604 62.1821 314.61 61.6381 314.61 61.2641C314.485 61.7401 314.298 62.3691 314.049 63.1511C313.811 63.9331 313.539 64.7944 313.233 65.7351C312.927 66.6758 312.604 67.6278 312.264 68.5911C311.935 69.5544 311.618 70.4668 311.312 71.3281C311.017 72.1894 310.751 72.9318 310.513 73.5551C310.286 74.1671 310.116 74.5864 310.003 74.8131C309.855 74.8244 309.634 74.8358 309.34 74.8471C309.056 74.8471 308.835 74.8471 308.677 74.8471C308.393 74.8471 308.104 74.8358 307.81 74.8131C307.515 74.7791 307.192 74.7451 306.841 74.7111C306.818 74.5751 306.744 74.2634 306.62 73.7761C306.495 73.2888 306.336 72.6768 306.144 71.9401C305.951 71.2034 305.741 70.3931 305.515 69.5091C305.288 68.6251 305.056 67.7241 304.818 66.8061C304.58 65.8768 304.342 64.9814 304.104 64.1201C303.877 63.2588 303.667 62.4824 303.475 61.7911C303.293 61.0884 303.14 60.5331 303.016 60.1251C303.016 61.2131 303.016 62.3974 303.016 63.6781C303.027 64.9474 303.033 66.2111 303.033 67.4691C303.033 68.7271 303.033 69.8888 303.033 70.9541C303.044 72.0194 303.05 72.9148 303.05 73.6401C303.05 74.3541 303.05 74.8018 303.05 74.9831C302.698 74.9944 302.251 75.0058 301.707 75.0171C301.163 75.0284 300.596 75.0398 300.007 75.0511C299.417 75.0624 298.856 75.0681 298.324 75.0681ZM329.777 75.3061C328.372 75.3061 327.091 75.1191 325.935 74.7451C324.779 74.3711 323.856 73.7591 323.164 72.9091C322.484 72.0478 322.144 70.9144 322.144 69.5091C322.144 68.1038 322.535 66.9704 323.317 66.1091C324.111 65.2364 325.159 64.6018 326.462 64.2051C327.766 63.7971 329.194 63.5931 330.746 63.5931C331.381 63.5931 331.999 63.6384 332.599 63.7291C333.2 63.8198 333.727 63.9331 334.18 64.0691C334.634 64.1938 334.951 64.3128 335.132 64.4261C335.11 64.0974 335.047 63.7574 334.945 63.4061C334.843 63.0548 334.69 62.7544 334.486 62.5051C334.124 61.9498 333.608 61.4851 332.939 61.1111C332.282 60.7371 331.426 60.5501 330.372 60.5501C329.296 60.5501 328.361 60.7881 327.567 61.2641C326.774 61.7401 326.179 62.2898 325.782 62.9131L322.093 60.5331C322.603 59.8078 323.283 59.1674 324.133 58.6121C324.983 58.0568 325.952 57.6261 327.04 57.3201C328.128 57.0028 329.284 56.8441 330.508 56.8441C332.48 56.8441 334.09 57.1841 335.336 57.8641C336.583 58.5441 337.501 59.4734 338.09 60.6521C338.374 61.2301 338.606 61.8648 338.787 62.5561C338.969 63.2474 339.088 64.0634 339.144 65.0041C339.178 65.8768 339.207 66.6644 339.229 67.3671C339.252 68.0698 339.28 68.7101 339.314 69.2881C339.337 70.1154 339.433 70.6538 339.603 70.9031C339.785 71.1411 340.028 71.2601 340.334 71.2601C340.663 71.2601 340.946 71.1524 341.184 70.9371C341.422 70.7218 341.57 70.4271 341.626 70.0531L343.343 72.9091C343.241 73.5778 342.896 74.1161 342.306 74.5241C341.717 74.9208 340.997 75.1191 340.147 75.1191C339.501 75.1191 338.906 75.0058 338.362 74.7791C337.818 74.5411 337.371 74.2351 337.019 73.8611C336.679 73.4758 336.481 73.0564 336.424 72.6031C336.22 73.0224 335.818 73.4418 335.217 73.8611C334.617 74.2804 333.857 74.6261 332.939 74.8981C332.021 75.1701 330.967 75.3061 329.777 75.3061ZM330.729 71.7531C331.33 71.7531 331.936 71.6624 332.548 71.4811C333.16 71.2998 333.716 71.0618 334.214 70.7671C334.724 70.4724 335.127 70.1664 335.421 69.8491C335.399 69.3731 335.382 68.9198 335.37 68.4891C335.37 68.0584 335.376 67.6788 335.387 67.3501C335.115 67.2481 334.588 67.1291 333.806 66.9931C333.036 66.8458 332.203 66.7721 331.307 66.7721C330.514 66.7721 329.777 66.8684 329.097 67.0611C328.429 67.2424 327.885 67.5201 327.465 67.8941C327.057 68.2568 326.853 68.7158 326.853 69.2711C326.853 69.9058 327.012 70.4044 327.329 70.7671C327.658 71.1298 328.111 71.3848 328.689 71.5321C329.279 71.6794 329.959 71.7531 330.729 71.7531ZM356.026 72.4671C355.822 72.9204 355.505 73.4078 355.074 73.9291C354.655 74.4391 354.1 74.8698 353.408 75.2211C352.717 75.5838 351.856 75.7651 350.824 75.7651C349.487 75.7651 348.405 75.4818 347.577 74.9151C346.75 74.3484 346.144 73.5948 345.758 72.6541C345.384 71.7021 345.197 70.6651 345.197 69.5431C345.197 68.9424 345.203 68.2851 345.214 67.5711C345.237 66.8458 345.26 66.1148 345.282 65.3781C345.305 64.6301 345.328 63.9218 345.35 63.2531C345.384 62.5844 345.413 61.9951 345.435 61.4851C345.469 60.9638 345.492 60.5671 345.503 60.2951C344.54 60.3971 343.667 60.5104 342.885 60.6351C342.103 60.7484 341.582 60.8334 341.321 60.8901C341.219 60.3574 341.14 59.8021 341.083 59.2241C341.038 58.6461 341.004 58.1418 340.981 57.7111C340.959 57.2804 340.947 57.0084 340.947 56.8951C341.593 56.8044 342.307 56.7194 343.089 56.6401C343.871 56.5494 344.676 56.4814 345.503 56.4361C345.492 56.1074 345.481 55.6428 345.469 55.0421C345.469 54.4414 345.464 53.8918 345.452 53.3931C345.441 52.9511 345.418 52.5148 345.384 52.0841C345.35 51.6421 345.322 51.2794 345.299 50.9961L349.719 50.6391C349.719 50.7864 349.725 51.1378 349.736 51.6931C349.759 52.2371 349.77 52.8944 349.77 53.6651C349.77 54.0051 349.77 54.4131 349.77 54.8891C349.782 55.3538 349.787 55.7958 349.787 56.2151C350.161 56.1924 350.598 56.1698 351.096 56.1471C351.595 56.1244 351.992 56.1074 352.286 56.0961C352.785 56.0734 353.244 56.0621 353.663 56.0621C354.083 56.0621 354.434 56.0678 354.717 56.0791C355.001 56.0791 355.188 56.0791 355.278 56.0791C355.346 56.5438 355.386 57.1444 355.397 57.8811C355.42 58.6064 355.431 59.2354 355.431 59.7681C355.318 59.7568 354.944 59.7568 354.309 59.7681C353.675 59.7794 353.051 59.7964 352.439 59.8191C351.997 59.8304 351.516 59.8531 350.994 59.8871C350.473 59.9211 350.048 59.9551 349.719 59.9891C349.708 60.2384 349.691 60.6011 349.668 61.0771C349.646 61.5418 349.623 62.0688 349.6 62.6581C349.589 63.2361 349.572 63.8311 349.549 64.4431C349.527 65.0551 349.51 65.6388 349.498 66.1941C349.487 66.7494 349.481 67.2254 349.481 67.6221C349.481 68.3588 349.521 69.0331 349.6 69.6451C349.68 70.2571 349.855 70.7501 350.127 71.1241C350.411 71.4868 350.847 71.6681 351.436 71.6681C351.833 71.6681 352.162 71.5434 352.422 71.2941C352.683 71.0448 352.893 70.7558 353.051 70.4271C353.221 70.0984 353.363 69.8094 353.476 69.5601C353.601 69.7301 353.788 69.9624 354.037 70.2571C354.287 70.5404 354.547 70.8351 354.819 71.1411C355.103 71.4471 355.352 71.7248 355.567 71.9741C355.794 72.2121 355.947 72.3764 356.026 72.4671ZM371.931 72.4671C371.727 72.9204 371.409 73.4078 370.979 73.9291C370.559 74.4391 370.004 74.8698 369.313 75.2211C368.621 75.5838 367.76 75.7651 366.729 75.7651C365.391 75.7651 364.309 75.4818 363.482 74.9151C362.654 74.3484 362.048 73.5948 361.663 72.6541C361.289 71.7021 361.102 70.6651 361.102 69.5431C361.102 68.9424 361.107 68.2851 361.119 67.5711C361.141 66.8458 361.164 66.1148 361.187 65.3781C361.209 64.6301 361.232 63.9218 361.255 63.2531C361.289 62.5844 361.317 61.9951 361.34 61.4851C361.374 60.9638 361.396 60.5671 361.408 60.2951C360.444 60.3971 359.572 60.5104 358.79 60.6351C358.008 60.7484 357.486 60.8334 357.226 60.8901C357.124 60.3574 357.044 59.8021 356.988 59.2241C356.942 58.6461 356.908 58.1418 356.886 57.7111C356.863 57.2804 356.852 57.0084 356.852 56.8951C357.498 56.8044 358.212 56.7194 358.994 56.6401C359.776 56.5494 360.58 56.4814 361.408 56.4361C361.396 56.1074 361.385 55.6428 361.374 55.0421C361.374 54.4414 361.368 53.8918 361.357 53.3931C361.345 52.9511 361.323 52.5148 361.289 52.0841C361.255 51.6421 361.226 51.2794 361.204 50.9961L365.624 50.6391C365.624 50.7864 365.629 51.1378 365.641 51.6931C365.663 52.2371 365.675 52.8944 365.675 53.6651C365.675 54.0051 365.675 54.4131 365.675 54.8891C365.686 55.3538 365.692 55.7958 365.692 56.2151C366.066 56.1924 366.502 56.1698 367.001 56.1471C367.499 56.1244 367.896 56.1074 368.191 56.0961C368.689 56.0734 369.148 56.0621 369.568 56.0621C369.987 56.0621 370.338 56.0678 370.622 56.0791C370.905 56.0791 371.092 56.0791 371.183 56.0791C371.251 56.5438 371.29 57.1444 371.302 57.8811C371.324 58.6064 371.336 59.2354 371.336 59.7681C371.222 59.7568 370.848 59.7568 370.214 59.7681C369.579 59.7794 368.956 59.7964 368.344 59.8191C367.902 59.8304 367.42 59.8531 366.899 59.8871C366.377 59.9211 365.952 59.9551 365.624 59.9891C365.612 60.2384 365.595 60.6011 365.573 61.0771C365.55 61.5418 365.527 62.0688 365.505 62.6581C365.493 63.2361 365.476 63.8311 365.454 64.4431C365.431 65.0551 365.414 65.6388 365.403 66.1941C365.391 66.7494 365.386 67.2254 365.386 67.6221C365.386 68.3588 365.425 69.0331 365.505 69.6451C365.584 70.2571 365.76 70.7501 366.032 71.1241C366.315 71.4868 366.751 71.6681 367.341 71.6681C367.737 71.6681 368.066 71.5434 368.327 71.2941C368.587 71.0448 368.797 70.7558 368.956 70.4271C369.126 70.0984 369.267 69.8094 369.381 69.5601C369.505 69.7301 369.692 69.9624 369.942 70.2571C370.191 70.5404 370.452 70.8351 370.724 71.1411C371.007 71.4471 371.256 71.7248 371.472 71.9741C371.698 72.2121 371.851 72.3764 371.931 72.4671ZM389.654 71.7021C389.37 72.0648 388.991 72.4444 388.515 72.8411C388.05 73.2264 387.489 73.5834 386.832 73.9121C386.174 74.2294 385.415 74.4901 384.554 74.6941C383.692 74.8981 382.729 75.0001 381.664 75.0001C379.952 75.0001 378.439 74.6658 377.125 73.9971C375.821 73.3284 374.801 72.3481 374.065 71.0561C373.339 69.7528 372.977 68.1434 372.977 66.2281C372.977 64.3354 373.362 62.6921 374.133 61.2981C374.903 59.8928 375.974 58.8048 377.346 58.0341C378.717 57.2634 380.304 56.8781 382.106 56.8781C384.384 56.8781 386.174 57.5354 387.478 58.8501C388.781 60.1534 389.478 61.9441 389.569 64.2221C389.58 64.6188 389.574 64.9871 389.552 65.3271C389.54 65.6558 389.506 66.0128 389.45 66.3981C389.291 66.3868 388.951 66.3754 388.43 66.3641C387.908 66.3414 387.313 66.3244 386.645 66.3131C385.976 66.2904 385.33 66.2734 384.707 66.2621C384.095 66.2508 383.613 66.2451 383.262 66.2451C382.23 66.2451 381.205 66.2961 380.185 66.3981C379.165 66.4888 378.292 66.5908 377.567 66.7041C377.567 66.9421 377.584 67.1744 377.618 67.4011C377.652 67.6278 377.697 67.8431 377.754 68.0471C377.924 68.5911 378.213 69.0614 378.621 69.4581C379.04 69.8434 379.539 70.1381 380.117 70.3421C380.706 70.5461 381.324 70.6481 381.97 70.6481C382.593 70.6481 383.154 70.5631 383.653 70.3931C384.151 70.2231 384.593 70.0078 384.979 69.7471C385.375 69.4864 385.721 69.2144 386.016 68.9311C386.31 68.6478 386.571 68.3984 386.798 68.1831C386.866 68.2398 387.024 68.3928 387.274 68.6421C387.523 68.8914 387.806 69.1918 388.124 69.5431C388.441 69.8944 388.736 70.2628 389.008 70.6481C389.291 71.0334 389.506 71.3848 389.654 71.7021ZM377.703 63.8311C378.315 63.7291 379.051 63.6384 379.913 63.5591C380.785 63.4798 381.788 63.4401 382.922 63.4401C383.522 63.4401 384.044 63.4514 384.486 63.4741C384.939 63.4854 385.256 63.4968 385.438 63.5081C385.438 63.2248 385.398 62.9188 385.319 62.5901C385.217 62.1481 385.018 61.7231 384.724 61.3151C384.44 60.8958 384.066 60.5558 383.602 60.2951C383.137 60.0344 382.576 59.9041 381.919 59.9041C381.103 59.9041 380.383 60.0798 379.76 60.4311C379.136 60.7711 378.643 61.2414 378.281 61.8421C377.929 62.4314 377.737 63.0944 377.703 63.8311ZM401.679 75.4251C398.687 75.4251 396.448 74.6204 394.964 73.0111C393.479 71.3904 392.737 69.0501 392.737 65.9901C392.737 63.9954 393.116 62.3238 393.876 60.9751C394.646 59.6264 395.712 58.6121 397.072 57.9321C398.443 57.2408 400.024 56.8951 401.815 56.8951C403.673 56.8951 405.209 57.3201 406.422 58.1701C407.646 59.0201 408.558 60.1988 409.159 61.7061C409.771 63.2134 410.077 64.9588 410.077 66.9421C410.077 68.6534 409.748 70.1438 409.091 71.4131C408.433 72.6824 407.481 73.6684 406.235 74.3711C404.988 75.0738 403.469 75.4251 401.679 75.4251ZM401.509 71.1581C402.234 71.1581 402.863 71.0334 403.396 70.7841C403.94 70.5234 404.393 70.1664 404.756 69.7131C405.118 69.2484 405.385 68.7158 405.555 68.1151C405.736 67.5144 405.827 66.8741 405.827 66.1941C405.827 65.0608 405.668 64.0578 405.351 63.1851C405.033 62.3124 404.557 61.6324 403.923 61.1451C403.299 60.6464 402.517 60.3971 401.577 60.3971C400.602 60.3971 399.792 60.6408 399.146 61.1281C398.511 61.6154 398.041 62.2671 397.735 63.0831C397.429 63.8991 397.276 64.7888 397.276 65.7521C397.276 67.3274 397.633 68.6251 398.347 69.6451C399.072 70.6538 400.126 71.1581 401.509 71.1581Z" fill="#39454C"/>
</svg>
