<svg width="346" height="124" viewBox="0 0 346 124" fill="none" xmlns="http://www.w3.org/2000/svg">
<path d="M145.021 56.255C144.636 56.255 144.171 56.2493 143.627 56.238C143.094 56.2267 142.55 56.204 141.995 56.17C141.451 56.1473 140.969 56.1077 140.55 56.051C140.527 55.2917 140.505 54.3227 140.482 53.144C140.459 51.9653 140.437 50.7187 140.414 49.404C140.403 48.0893 140.397 46.854 140.397 45.698C140.397 43.9527 140.408 42.06 140.431 40.02C140.465 37.98 140.499 35.8493 140.533 33.628C140.703 33.6167 140.969 33.611 141.332 33.611C141.706 33.5997 142.12 33.5883 142.573 33.577C143.026 33.5543 143.468 33.543 143.899 33.543C144.341 33.5317 144.709 33.526 145.004 33.526C145.061 34.7953 145.112 36.178 145.157 37.674C145.202 39.17 145.236 40.6717 145.259 42.179C145.282 43.6863 145.293 45.1143 145.293 46.463C145.293 47.109 145.287 47.8117 145.276 48.571C145.276 49.319 145.27 50.0783 145.259 50.849C145.248 51.6197 145.231 52.362 145.208 53.076C145.185 53.7787 145.157 54.4077 145.123 54.963C145.089 55.5183 145.055 55.949 145.021 56.255ZM176.7 51.869C176.133 52.617 175.442 53.3197 174.626 53.977C173.81 54.623 172.88 55.1557 171.838 55.575C170.795 55.983 169.656 56.187 168.421 56.187C166.891 56.187 165.531 55.9037 164.341 55.337C163.162 54.759 162.17 53.9543 161.366 52.923C160.561 51.8803 159.949 50.662 159.53 49.268C159.11 47.8627 158.901 46.3383 158.901 44.695C158.901 42.553 159.263 40.6377 159.989 38.949C160.725 37.249 161.791 35.9117 163.185 34.937C164.59 33.951 166.307 33.458 168.336 33.458C170.002 33.458 171.543 33.815 172.96 34.529C174.376 35.243 175.476 36.2857 176.258 37.657C175.986 37.9517 175.629 38.286 175.187 38.66C174.745 39.0227 174.291 39.374 173.827 39.714C173.373 40.0427 172.982 40.309 172.654 40.513C172.597 40.377 172.472 40.156 172.28 39.85C172.098 39.5327 171.838 39.2097 171.498 38.881C171.169 38.541 170.744 38.252 170.223 38.014C169.713 37.776 169.101 37.657 168.387 37.657C167.775 37.657 167.202 37.8043 166.67 38.099C166.148 38.3937 165.689 38.83 165.293 39.408C164.907 39.986 164.601 40.6943 164.375 41.533C164.159 42.3603 164.052 43.3123 164.052 44.389C164.052 45.3523 164.148 46.259 164.341 47.109C164.533 47.959 164.811 48.707 165.174 49.353C165.548 49.999 166.001 50.5033 166.534 50.866C167.066 51.2173 167.667 51.393 168.336 51.393C169.061 51.393 169.73 51.2513 170.342 50.968C170.954 50.6847 171.509 50.3277 172.008 49.897C172.506 49.455 172.948 49.0017 173.334 48.537C173.696 48.775 174.099 49.0923 174.541 49.489C174.983 49.8743 175.396 50.2823 175.782 50.713C176.178 51.1323 176.484 51.5177 176.7 51.869ZM187.745 56.425C184.753 56.425 182.515 55.6203 181.03 54.011C179.545 52.3903 178.803 50.05 178.803 46.99C178.803 44.9953 179.183 43.3237 179.942 41.975C180.713 40.6263 181.778 39.612 183.138 38.932C184.509 38.2407 186.09 37.895 187.881 37.895C189.74 37.895 191.275 38.32 192.488 39.17C193.712 40.02 194.624 41.1987 195.225 42.706C195.837 44.2133 196.143 45.9587 196.143 47.942C196.143 49.6533 195.814 51.1437 195.157 52.413C194.5 53.6823 193.548 54.6683 192.301 55.371C191.054 56.0737 189.536 56.425 187.745 56.425ZM187.575 52.158C188.3 52.158 188.929 52.0333 189.462 51.784C190.006 51.5233 190.459 51.1663 190.822 50.713C191.185 50.2483 191.451 49.7157 191.621 49.115C191.802 48.5143 191.893 47.874 191.893 47.194C191.893 46.0607 191.734 45.0577 191.417 44.185C191.1 43.3123 190.624 42.6323 189.989 42.145C189.366 41.6463 188.584 41.397 187.643 41.397C186.668 41.397 185.858 41.6407 185.212 42.128C184.577 42.6153 184.107 43.267 183.801 44.083C183.495 44.899 183.342 45.7887 183.342 46.752C183.342 48.3273 183.699 49.625 184.413 50.645C185.138 51.6537 186.192 52.158 187.575 52.158ZM208.313 55.099C208.018 55.4503 207.468 55.796 206.664 56.136C205.859 56.4873 204.947 56.663 203.927 56.663C202.567 56.663 201.541 56.3343 200.85 55.677C200.17 55.0083 199.711 54.079 199.473 52.889C199.246 51.699 199.133 50.3163 199.133 48.741C199.133 47.5963 199.144 46.412 199.167 45.188C199.189 43.9527 199.218 42.7173 199.252 41.482C199.297 40.2467 199.342 39.0453 199.388 37.878C199.433 36.6993 199.478 35.5887 199.524 34.546C199.58 33.492 199.631 32.5457 199.677 31.707C200.391 31.6503 201.048 31.622 201.649 31.622C202.045 31.622 202.436 31.6333 202.822 31.656C203.207 31.6787 203.621 31.7127 204.063 31.758C204.006 32.6873 203.944 33.7413 203.876 34.92C203.819 36.0873 203.757 37.2943 203.689 38.541C203.632 39.7877 203.575 41.0117 203.519 42.213C203.462 43.403 203.417 44.4967 203.383 45.494C203.36 46.4913 203.349 47.3073 203.349 47.942C203.349 48.7127 203.383 49.4437 203.451 50.135C203.53 50.815 203.694 51.3703 203.944 51.801C204.193 52.2317 204.567 52.447 205.066 52.447C205.474 52.447 205.802 52.3563 206.052 52.175C206.301 51.9823 206.505 51.733 206.664 51.427C206.743 51.5517 206.862 51.7897 207.021 52.141C207.179 52.4923 207.349 52.8777 207.531 53.297C207.723 53.7163 207.893 54.096 208.041 54.436C208.188 54.776 208.279 54.997 208.313 55.099ZM218.624 56.425C215.632 56.425 213.393 55.6203 211.909 54.011C210.424 52.3903 209.682 50.05 209.682 46.99C209.682 44.9953 210.061 43.3237 210.821 41.975C211.591 40.6263 212.657 39.612 214.017 38.932C215.388 38.2407 216.969 37.895 218.76 37.895C220.618 37.895 222.154 38.32 223.367 39.17C224.591 40.02 225.503 41.1987 226.104 42.706C226.716 44.2133 227.022 45.9587 227.022 47.942C227.022 49.6533 226.693 51.1437 226.036 52.413C225.378 53.6823 224.426 54.6683 223.18 55.371C221.933 56.0737 220.414 56.425 218.624 56.425ZM218.454 52.158C219.179 52.158 219.808 52.0333 220.341 51.784C220.885 51.5233 221.338 51.1663 221.701 50.713C222.063 50.2483 222.33 49.7157 222.5 49.115C222.681 48.5143 222.772 47.874 222.772 47.194C222.772 46.0607 222.613 45.0577 222.296 44.185C221.978 43.3123 221.502 42.6323 220.868 42.145C220.244 41.6463 219.462 41.397 218.522 41.397C217.547 41.397 216.737 41.6407 216.091 42.128C215.456 42.6153 214.986 43.267 214.68 44.083C214.374 44.899 214.221 45.7887 214.221 46.752C214.221 48.3273 214.578 49.625 215.292 50.645C216.017 51.6537 217.071 52.158 218.454 52.158ZM234.007 40.819C234.29 40.2863 234.721 39.7877 235.299 39.323C235.877 38.8583 236.545 38.4787 237.305 38.184C238.075 37.8893 238.88 37.742 239.719 37.742C240.24 37.742 240.761 37.793 241.283 37.895C241.815 37.997 242.212 38.133 242.473 38.303L241.538 43.046C241.288 42.944 240.96 42.8307 240.552 42.706C240.144 42.5813 239.668 42.519 239.124 42.519C238.546 42.519 237.979 42.6153 237.424 42.808C236.88 43.0007 236.375 43.2727 235.911 43.624C235.446 43.9753 235.049 44.389 234.721 44.865C234.845 45.579 234.976 46.4687 235.112 47.534C235.259 48.588 235.395 49.676 235.52 50.798C235.644 51.9087 235.746 52.923 235.826 53.841C235.916 54.759 235.962 55.439 235.962 55.881C235.259 55.9717 234.443 56.0283 233.514 56.051C232.596 56.0737 231.717 56.0793 230.879 56.068C230.879 55.082 230.85 53.9883 230.794 52.787C230.748 51.5857 230.68 50.3447 230.59 49.064C230.499 47.772 230.386 46.497 230.25 45.239C230.114 43.9697 229.955 42.774 229.774 41.652C229.604 40.53 229.417 39.544 229.213 38.694C229.677 38.558 230.193 38.4277 230.76 38.303C231.338 38.1783 231.865 38.0763 232.341 37.997C232.817 37.9177 233.123 37.8723 233.259 37.861C233.395 38.201 233.548 38.6827 233.718 39.306C233.888 39.918 233.984 40.4223 234.007 40.819ZM250.274 55.983C250.093 55.9943 249.764 56.017 249.288 56.051C248.812 56.085 248.319 56.102 247.809 56.102C247.401 56.102 246.999 56.0907 246.602 56.068C246.205 56.0453 245.82 56.0113 245.446 55.966C245.503 55.6713 245.565 55.065 245.633 54.147C245.701 53.229 245.769 52.1467 245.837 50.9C245.916 49.6533 245.99 48.367 246.058 47.041C246.126 45.7037 246.177 44.457 246.211 43.301C246.256 42.1337 246.279 41.2043 246.279 40.513C246.472 40.5017 246.761 40.4847 247.146 40.462C247.531 40.4393 247.951 40.4223 248.404 40.411C248.857 40.3883 249.288 40.3713 249.696 40.36C250.104 40.3487 250.421 40.343 250.648 40.343C250.705 40.683 250.744 41.2157 250.767 41.941C250.801 42.6663 250.818 43.4823 250.818 44.389C250.818 45.4317 250.801 46.548 250.767 47.738C250.744 48.9167 250.71 50.067 250.665 51.189C250.62 52.311 250.557 53.3027 250.478 54.164C250.41 55.014 250.342 55.6203 250.274 55.983ZM248.659 37.997C247.718 37.997 246.942 37.7193 246.33 37.164C245.718 36.6087 245.412 35.889 245.412 35.005C245.412 34.3817 245.559 33.8547 245.854 33.424C246.149 32.982 246.534 32.6477 247.01 32.421C247.486 32.183 247.99 32.064 248.523 32.064C249.384 32.064 250.087 32.353 250.631 32.931C251.186 33.4977 251.464 34.223 251.464 35.107C251.464 35.9117 251.198 36.5973 250.665 37.164C250.144 37.7193 249.475 37.997 248.659 37.997ZM151.787 89.949C151.776 89.779 151.764 89.5297 151.753 89.201C151.742 88.8723 151.73 88.5437 151.719 88.215C151.719 87.875 151.719 87.6143 151.719 87.433C151.606 87.603 151.407 87.8297 151.124 88.113C150.841 88.3963 150.461 88.6797 149.985 88.963C149.52 89.2463 148.948 89.49 148.268 89.694C147.588 89.8867 146.789 89.983 145.871 89.983C144.42 89.983 143.168 89.643 142.114 88.963C141.071 88.2717 140.272 87.331 139.717 86.141C139.162 84.951 138.884 83.5967 138.884 82.078C138.884 80.6047 139.162 79.2333 139.717 77.964C140.284 76.6947 141.128 75.669 142.25 74.887C143.383 74.0937 144.8 73.697 146.5 73.697C147.407 73.697 148.223 73.799 148.948 74.003C149.685 74.207 150.302 74.4563 150.801 74.751C151.311 75.0457 151.668 75.3347 151.872 75.618C151.906 75.0287 151.946 74.343 151.991 73.561C152.048 72.779 152.11 71.963 152.178 71.113C152.246 70.263 152.308 69.4527 152.365 68.682C152.433 67.9113 152.495 67.2483 152.552 66.693C152.609 66.1263 152.648 65.741 152.671 65.537C153.26 65.537 153.918 65.571 154.643 65.639C155.38 65.6957 156.026 65.7977 156.581 65.945C156.377 68.5517 156.218 71.1583 156.105 73.765C156.003 76.3603 155.929 79.0067 155.884 81.704C155.85 84.39 155.833 87.1837 155.833 90.085C155.595 90.085 155.21 90.0793 154.677 90.068C154.156 90.0567 153.617 90.0397 153.062 90.017C152.518 89.9943 152.093 89.9717 151.787 89.949ZM147.095 85.648C147.684 85.648 148.217 85.5687 148.693 85.41C149.18 85.2513 149.611 85.053 149.985 84.815C150.37 84.5657 150.699 84.3107 150.971 84.05C151.243 83.778 151.458 83.5287 151.617 83.302C151.617 83.064 151.617 82.7523 151.617 82.367C151.617 81.9817 151.617 81.5793 151.617 81.16C151.628 80.7407 151.634 80.3497 151.634 79.987C151.645 79.6243 151.657 79.3467 151.668 79.154C151.419 78.916 151.056 78.678 150.58 78.44C150.115 78.1907 149.588 77.9867 148.999 77.828C148.421 77.658 147.82 77.573 147.197 77.573C145.916 77.573 144.925 77.9527 144.222 78.712C143.531 79.46 143.185 80.4573 143.185 81.704C143.185 82.996 143.519 83.9763 144.188 84.645C144.868 85.3137 145.837 85.648 147.095 85.648ZM165.307 89.983C165.126 89.9943 164.797 90.017 164.321 90.051C163.845 90.085 163.352 90.102 162.842 90.102C162.434 90.102 162.032 90.0907 161.635 90.068C161.239 90.0453 160.853 90.0113 160.479 89.966C160.536 89.6713 160.598 89.065 160.666 88.147C160.734 87.229 160.802 86.1467 160.87 84.9C160.95 83.6533 161.023 82.367 161.091 81.041C161.159 79.7037 161.21 78.457 161.244 77.301C161.29 76.1337 161.312 75.2043 161.312 74.513C161.505 74.5017 161.794 74.4847 162.179 74.462C162.565 74.4393 162.984 74.4223 163.437 74.411C163.891 74.3883 164.321 74.3713 164.729 74.36C165.137 74.3487 165.455 74.343 165.681 74.343C165.738 74.683 165.778 75.2157 165.8 75.941C165.834 76.6663 165.851 77.4823 165.851 78.389C165.851 79.4317 165.834 80.548 165.8 81.738C165.778 82.9167 165.744 84.067 165.698 85.189C165.653 86.311 165.591 87.3027 165.511 88.164C165.443 89.014 165.375 89.6203 165.307 89.983ZM163.692 71.997C162.752 71.997 161.975 71.7193 161.363 71.164C160.751 70.6087 160.445 69.889 160.445 69.005C160.445 68.3817 160.593 67.8547 160.887 67.424C161.182 66.982 161.567 66.6477 162.043 66.421C162.519 66.183 163.024 66.064 163.556 66.064C164.418 66.064 165.12 66.353 165.664 66.931C166.22 67.4977 166.497 68.223 166.497 69.107C166.497 69.9117 166.231 70.5973 165.698 71.164C165.177 71.7193 164.508 71.997 163.692 71.997ZM181.111 90.068C181.111 89.116 181.116 87.9487 181.128 86.566C181.139 85.1833 181.156 83.693 181.179 82.095C181.213 80.497 181.247 78.882 181.281 77.25C181.315 75.618 181.354 74.071 181.4 72.609C181.445 71.147 181.496 69.8663 181.553 68.767C182.04 68.7217 182.607 68.6877 183.253 68.665C183.91 68.631 184.556 68.6083 185.191 68.597C185.825 68.5743 186.364 68.563 186.806 68.563C187.248 68.5517 187.497 68.546 187.554 68.546C187.576 68.5913 187.661 68.8803 187.809 69.413C187.967 69.9457 188.171 70.637 188.421 71.487C188.67 72.337 188.936 73.272 189.22 74.292C189.514 75.312 189.809 76.3547 190.104 77.42C190.398 78.474 190.67 79.4713 190.92 80.412C191.18 81.3527 191.396 82.163 191.566 82.843C191.736 83.523 191.838 83.9877 191.872 84.237L191.328 84.305C191.452 83.965 191.634 83.4097 191.872 82.639C192.121 81.857 192.404 80.956 192.722 79.936C193.039 78.9047 193.362 77.8223 193.691 76.689C194.031 75.5557 194.354 74.4563 194.66 73.391C194.977 72.3143 195.249 71.3567 195.476 70.518C195.702 69.668 195.861 69.022 195.952 68.58C196.382 68.58 196.926 68.5913 197.584 68.614C198.241 68.6367 198.904 68.6707 199.573 68.716C200.241 68.75 200.791 68.8067 201.222 68.886C201.448 69.9287 201.607 71.283 201.698 72.949C201.788 74.6037 201.834 76.3603 201.834 78.219C201.834 79.6583 201.817 81.1203 201.783 82.605C201.749 84.0783 201.698 85.461 201.63 86.753C201.573 88.0337 201.511 89.1047 201.443 89.966C200.955 89.966 200.423 89.9603 199.845 89.949C199.278 89.9263 198.734 89.898 198.213 89.864C197.703 89.8187 197.295 89.7903 196.989 89.779C197.057 88.9063 197.113 87.8467 197.159 86.6C197.215 85.342 197.261 84.05 197.295 82.724C197.317 81.908 197.334 81.075 197.346 80.225C197.357 79.375 197.368 78.5987 197.38 77.896C197.391 77.182 197.397 76.638 197.397 76.264C197.272 76.74 197.085 77.369 196.836 78.151C196.598 78.933 196.326 79.7943 196.02 80.735C195.714 81.6757 195.391 82.6277 195.051 83.591C194.722 84.5543 194.405 85.4667 194.099 86.328C193.804 87.1893 193.538 87.9317 193.3 88.555C193.073 89.167 192.903 89.5863 192.79 89.813C192.642 89.8243 192.421 89.8357 192.127 89.847C191.843 89.847 191.622 89.847 191.464 89.847C191.18 89.847 190.891 89.8357 190.597 89.813C190.302 89.779 189.979 89.745 189.628 89.711C189.605 89.575 189.531 89.2633 189.407 88.776C189.282 88.2887 189.123 87.6767 188.931 86.94C188.738 86.2033 188.528 85.393 188.302 84.509C188.075 83.625 187.843 82.724 187.605 81.806C187.367 80.8767 187.129 79.9813 186.891 79.12C186.664 78.2587 186.454 77.4823 186.262 76.791C186.08 76.0883 185.927 75.533 185.803 75.125C185.803 76.213 185.803 77.3973 185.803 78.678C185.814 79.9473 185.82 81.211 185.82 82.469C185.82 83.727 185.82 84.8887 185.82 85.954C185.831 87.0193 185.837 87.9147 185.837 88.64C185.837 89.354 185.837 89.8017 185.837 89.983C185.485 89.9943 185.038 90.0057 184.494 90.017C183.95 90.0283 183.383 90.0397 182.794 90.051C182.204 90.0623 181.643 90.068 181.111 90.068ZM212.564 90.306C211.159 90.306 209.878 90.119 208.722 89.745C207.566 89.371 206.643 88.759 205.951 87.909C205.271 87.0477 204.931 85.9143 204.931 84.509C204.931 83.1037 205.322 81.9703 206.104 81.109C206.898 80.2363 207.946 79.6017 209.249 79.205C210.553 78.797 211.981 78.593 213.533 78.593C214.168 78.593 214.786 78.6383 215.386 78.729C215.987 78.8197 216.514 78.933 216.967 79.069C217.421 79.1937 217.738 79.3127 217.919 79.426C217.897 79.0973 217.834 78.7573 217.732 78.406C217.63 78.0547 217.477 77.7543 217.273 77.505C216.911 76.9497 216.395 76.485 215.726 76.111C215.069 75.737 214.213 75.55 213.159 75.55C212.083 75.55 211.148 75.788 210.354 76.264C209.561 76.74 208.966 77.2897 208.569 77.913L204.88 75.533C205.39 74.8077 206.07 74.1673 206.92 73.612C207.77 73.0567 208.739 72.626 209.827 72.32C210.915 72.0027 212.071 71.844 213.295 71.844C215.267 71.844 216.877 72.184 218.123 72.864C219.37 73.544 220.288 74.4733 220.877 75.652C221.161 76.23 221.393 76.8647 221.574 77.556C221.756 78.2473 221.875 79.0633 221.931 80.004C221.965 80.8767 221.994 81.6643 222.016 82.367C222.039 83.0697 222.067 83.71 222.101 84.288C222.124 85.1153 222.22 85.6537 222.39 85.903C222.572 86.141 222.815 86.26 223.121 86.26C223.45 86.26 223.733 86.1523 223.971 85.937C224.209 85.7217 224.357 85.427 224.413 85.053L226.13 87.909C226.028 88.5777 225.683 89.116 225.093 89.524C224.504 89.9207 223.784 90.119 222.934 90.119C222.288 90.119 221.693 90.0057 221.149 89.779C220.605 89.541 220.158 89.235 219.806 88.861C219.466 88.4757 219.268 88.0563 219.211 87.603C219.007 88.0223 218.605 88.4417 218.004 88.861C217.404 89.2803 216.644 89.626 215.726 89.898C214.808 90.17 213.754 90.306 212.564 90.306ZM213.516 86.753C214.117 86.753 214.723 86.6623 215.335 86.481C215.947 86.2997 216.503 86.0617 217.001 85.767C217.511 85.4723 217.914 85.1663 218.208 84.849C218.186 84.373 218.169 83.9197 218.157 83.489C218.157 83.0583 218.163 82.6787 218.174 82.35C217.902 82.248 217.375 82.129 216.593 81.993C215.823 81.8457 214.99 81.772 214.094 81.772C213.301 81.772 212.564 81.8683 211.884 82.061C211.216 82.2423 210.672 82.52 210.252 82.894C209.844 83.2567 209.64 83.7157 209.64 84.271C209.64 84.9057 209.799 85.4043 210.116 85.767C210.445 86.1297 210.898 86.3847 211.476 86.532C212.066 86.6793 212.746 86.753 213.516 86.753ZM238.813 87.467C238.609 87.9203 238.292 88.4077 237.861 88.929C237.442 89.439 236.887 89.8697 236.195 90.221C235.504 90.5837 234.643 90.765 233.611 90.765C232.274 90.765 231.192 90.4817 230.364 89.915C229.537 89.3483 228.931 88.5947 228.545 87.654C228.171 86.702 227.984 85.665 227.984 84.543C227.984 83.9423 227.99 83.285 228.001 82.571C228.024 81.8457 228.047 81.1147 228.069 80.378C228.092 79.63 228.115 78.9217 228.137 78.253C228.171 77.5843 228.2 76.995 228.222 76.485C228.256 75.9637 228.279 75.567 228.29 75.295C227.327 75.397 226.454 75.5103 225.672 75.635C224.89 75.7483 224.369 75.8333 224.108 75.89C224.006 75.3573 223.927 74.802 223.87 74.224C223.825 73.646 223.791 73.1417 223.768 72.711C223.746 72.2803 223.734 72.0083 223.734 71.895C224.38 71.8043 225.094 71.7193 225.876 71.64C226.658 71.5493 227.463 71.4813 228.29 71.436C228.279 71.1073 228.268 70.6427 228.256 70.042C228.256 69.4413 228.251 68.8917 228.239 68.393C228.228 67.951 228.205 67.5147 228.171 67.084C228.137 66.642 228.109 66.2793 228.086 65.996L232.506 65.639C232.506 65.7863 232.512 66.1377 232.523 66.693C232.546 67.237 232.557 67.8943 232.557 68.665C232.557 69.005 232.557 69.413 232.557 69.889C232.569 70.3537 232.574 70.7957 232.574 71.215C232.948 71.1923 233.385 71.1697 233.883 71.147C234.382 71.1243 234.779 71.1073 235.073 71.096C235.572 71.0733 236.031 71.062 236.45 71.062C236.87 71.062 237.221 71.0677 237.504 71.079C237.788 71.079 237.975 71.079 238.065 71.079C238.133 71.5437 238.173 72.1443 238.184 72.881C238.207 73.6063 238.218 74.2353 238.218 74.768C238.105 74.7567 237.731 74.7567 237.096 74.768C236.462 74.7793 235.838 74.7963 235.226 74.819C234.784 74.8303 234.303 74.853 233.781 74.887C233.26 74.921 232.835 74.955 232.506 74.989C232.495 75.2383 232.478 75.601 232.455 76.077C232.433 76.5417 232.41 77.0687 232.387 77.658C232.376 78.236 232.359 78.831 232.336 79.443C232.314 80.055 232.297 80.6387 232.285 81.194C232.274 81.7493 232.268 82.2253 232.268 82.622C232.268 83.3587 232.308 84.033 232.387 84.645C232.467 85.257 232.642 85.75 232.914 86.124C233.198 86.4867 233.634 86.668 234.223 86.668C234.62 86.668 234.949 86.5433 235.209 86.294C235.47 86.0447 235.68 85.7557 235.838 85.427C236.008 85.0983 236.15 84.8093 236.263 84.56C236.388 84.73 236.575 84.9623 236.824 85.257C237.074 85.5403 237.334 85.835 237.606 86.141C237.89 86.447 238.139 86.7247 238.354 86.974C238.581 87.212 238.734 87.3763 238.813 87.467ZM254.718 87.467C254.514 87.9203 254.196 88.4077 253.766 88.929C253.346 89.439 252.791 89.8697 252.1 90.221C251.408 90.5837 250.547 90.765 249.516 90.765C248.178 90.765 247.096 90.4817 246.269 89.915C245.441 89.3483 244.835 88.5947 244.45 87.654C244.076 86.702 243.889 85.665 243.889 84.543C243.889 83.9423 243.894 83.285 243.906 82.571C243.928 81.8457 243.951 81.1147 243.974 80.378C243.996 79.63 244.019 78.9217 244.042 78.253C244.076 77.5843 244.104 76.995 244.127 76.485C244.161 75.9637 244.183 75.567 244.195 75.295C243.231 75.397 242.359 75.5103 241.577 75.635C240.795 75.7483 240.273 75.8333 240.013 75.89C239.911 75.3573 239.831 74.802 239.775 74.224C239.729 73.646 239.695 73.1417 239.673 72.711C239.65 72.2803 239.639 72.0083 239.639 71.895C240.285 71.8043 240.999 71.7193 241.781 71.64C242.563 71.5493 243.367 71.4813 244.195 71.436C244.183 71.1073 244.172 70.6427 244.161 70.042C244.161 69.4413 244.155 68.8917 244.144 68.393C244.132 67.951 244.11 67.5147 244.076 67.084C244.042 66.642 244.013 66.2793 243.991 65.996L248.411 65.639C248.411 65.7863 248.416 66.1377 248.428 66.693C248.45 67.237 248.462 67.8943 248.462 68.665C248.462 69.005 248.462 69.413 248.462 69.889C248.473 70.3537 248.479 70.7957 248.479 71.215C248.853 71.1923 249.289 71.1697 249.788 71.147C250.286 71.1243 250.683 71.1073 250.978 71.096C251.476 71.0733 251.935 71.062 252.355 71.062C252.774 71.062 253.125 71.0677 253.409 71.079C253.692 71.079 253.879 71.079 253.97 71.079C254.038 71.5437 254.077 72.1443 254.089 72.881C254.111 73.6063 254.123 74.2353 254.123 74.768C254.009 74.7567 253.635 74.7567 253.001 74.768C252.366 74.7793 251.743 74.7963 251.131 74.819C250.689 74.8303 250.207 74.853 249.686 74.887C249.164 74.921 248.739 74.955 248.411 74.989C248.399 75.2383 248.382 75.601 248.36 76.077C248.337 76.5417 248.314 77.0687 248.292 77.658C248.28 78.236 248.263 78.831 248.241 79.443C248.218 80.055 248.201 80.6387 248.19 81.194C248.178 81.7493 248.173 82.2253 248.173 82.622C248.173 83.3587 248.212 84.033 248.292 84.645C248.371 85.257 248.547 85.75 248.819 86.124C249.102 86.4867 249.538 86.668 250.128 86.668C250.524 86.668 250.853 86.5433 251.114 86.294C251.374 86.0447 251.584 85.7557 251.743 85.427C251.913 85.0983 252.054 84.8093 252.168 84.56C252.292 84.73 252.479 84.9623 252.729 85.257C252.978 85.5403 253.239 85.835 253.511 86.141C253.794 86.447 254.043 86.7247 254.259 86.974C254.485 87.212 254.638 87.3763 254.718 87.467ZM272.441 86.702C272.157 87.0647 271.778 87.4443 271.302 87.841C270.837 88.2263 270.276 88.5833 269.619 88.912C268.961 89.2293 268.202 89.49 267.341 89.694C266.479 89.898 265.516 90 264.451 90C262.739 90 261.226 89.6657 259.912 88.997C258.608 88.3283 257.588 87.348 256.852 86.056C256.126 84.7527 255.764 83.1433 255.764 81.228C255.764 79.3353 256.149 77.692 256.92 76.298C257.69 74.8927 258.761 73.8047 260.133 73.034C261.504 72.2633 263.091 71.878 264.893 71.878C267.171 71.878 268.961 72.5353 270.265 73.85C271.568 75.1533 272.265 76.944 272.356 79.222C272.367 79.6187 272.361 79.987 272.339 80.327C272.327 80.6557 272.293 81.0127 272.237 81.398C272.078 81.3867 271.738 81.3753 271.217 81.364C270.695 81.3413 270.1 81.3243 269.432 81.313C268.763 81.2903 268.117 81.2733 267.494 81.262C266.882 81.2507 266.4 81.245 266.049 81.245C265.017 81.245 263.992 81.296 262.972 81.398C261.952 81.4887 261.079 81.5907 260.354 81.704C260.354 81.942 260.371 82.1743 260.405 82.401C260.439 82.6277 260.484 82.843 260.541 83.047C260.711 83.591 261 84.0613 261.408 84.458C261.827 84.8433 262.326 85.138 262.904 85.342C263.493 85.546 264.111 85.648 264.757 85.648C265.38 85.648 265.941 85.563 266.44 85.393C266.938 85.223 267.38 85.0077 267.766 84.747C268.162 84.4863 268.508 84.2143 268.803 83.931C269.097 83.6477 269.358 83.3983 269.585 83.183C269.653 83.2397 269.811 83.3927 270.061 83.642C270.31 83.8913 270.593 84.1917 270.911 84.543C271.228 84.8943 271.523 85.2627 271.795 85.648C272.078 86.0333 272.293 86.3847 272.441 86.702ZM260.49 78.831C261.102 78.729 261.838 78.6383 262.7 78.559C263.572 78.4797 264.575 78.44 265.709 78.44C266.309 78.44 266.831 78.4513 267.273 78.474C267.726 78.4853 268.043 78.4967 268.225 78.508C268.225 78.2247 268.185 77.9187 268.106 77.59C268.004 77.148 267.805 76.723 267.511 76.315C267.227 75.8957 266.853 75.5557 266.389 75.295C265.924 75.0343 265.363 74.904 264.706 74.904C263.89 74.904 263.17 75.0797 262.547 75.431C261.923 75.771 261.43 76.2413 261.068 76.842C260.716 77.4313 260.524 78.0943 260.49 78.831ZM284.466 90.425C281.474 90.425 279.235 89.6203 277.751 88.011C276.266 86.3903 275.524 84.05 275.524 80.99C275.524 78.9953 275.903 77.3237 276.663 75.975C277.433 74.6263 278.499 73.612 279.859 72.932C281.23 72.2407 282.811 71.895 284.602 71.895C286.46 71.895 287.996 72.32 289.209 73.17C290.433 74.02 291.345 75.1987 291.946 76.706C292.558 78.2133 292.864 79.9587 292.864 81.942C292.864 83.6533 292.535 85.1437 291.878 86.413C291.22 87.6823 290.268 88.6683 289.022 89.371C287.775 90.0737 286.256 90.425 284.466 90.425ZM284.296 86.158C285.021 86.158 285.65 86.0333 286.183 85.784C286.727 85.5233 287.18 85.1663 287.543 84.713C287.905 84.2483 288.172 83.7157 288.342 83.115C288.523 82.5143 288.614 81.874 288.614 81.194C288.614 80.0607 288.455 79.0577 288.138 78.185C287.82 77.3123 287.344 76.6323 286.71 76.145C286.086 75.6463 285.304 75.397 284.364 75.397C283.389 75.397 282.579 75.6407 281.933 76.128C281.298 76.6153 280.828 77.267 280.522 78.083C280.216 78.899 280.063 79.7887 280.063 80.752C280.063 82.3273 280.42 83.625 281.134 84.645C281.859 85.6537 282.913 86.158 284.296 86.158Z" fill="#313131"/>
<path d="M69.1662 98.9406C67.5889 105.473 85.9651 120.258 103 122C124.294 124.177 149.15 111 165 111C181 111 232.888 123.825 266.8 120.715C300.712 117.604 321 98.9406 321 84" stroke="#313131" stroke-width="2" stroke-linecap="round" stroke-linejoin="round"/>
<path d="M96.1139 79.5763C111.509 73.221 123.705 63.7334 125.164 46.6551C126.763 27.947 114.468 11.616 97.7038 10.1787C80.9392 8.74145 66.0528 22.7422 64.4543 41.4503C63.0853 57.472 72.6779 68.0626 85.1482 76.9624C82.5218 78.4196 80.0688 79.9993 79.5533 81.0053C78.4245 83.2082 80.3014 86.0044 82.2065 86.9003C83.7412 87.622 86.442 86.9995 88.376 86.5538C88.8426 86.4463 89.2646 86.349 89.6148 86.2834C90.7183 86.0767 92.3626 86.7569 93.9317 87.4059C94.9243 87.8164 95.8869 88.2146 96.6633 88.3678C98.6671 88.7634 100.231 86.9929 100.591 84.2917C100.773 82.9195 98.5245 81.086 96.1139 79.5763Z" fill="#E58F91"/>
<path d="M59.0752 93.2861C64.2358 80.3345 65.6604 67.6951 56.2935 57.6651C46.0328 46.678 29.1059 45.5848 18.4864 55.2234C7.86683 64.862 7.576 81.5824 17.8368 92.5695C26.6242 101.979 38.544 101.683 51.1277 98.6964C50.4704 101.105 49.9874 103.472 50.2891 104.329C50.9497 106.207 53.7151 106.536 55.3601 105.832C56.6853 105.265 57.8852 103.256 58.7445 101.817C58.9518 101.47 59.1393 101.156 59.304 100.904C59.8227 100.108 61.1868 99.4509 62.4885 98.8237C63.312 98.4268 64.1105 98.042 64.6542 97.642C66.0574 96.6094 65.9087 94.6928 64.5022 93.0263C63.7878 92.1799 61.3817 92.5963 59.0752 93.2861Z" fill="#E7CF70"/>
<path d="M72.3596 90.5348C87.1864 76.2988 97.0267 59.6862 91.3814 38.5986C85.1974 15.4985 64.196 1.22238 44.4735 6.71195C24.7511 12.2015 13.776 35.378 19.9601 58.4781C25.2562 78.2611 40.7214 86.8224 58.743 92.1202C56.3731 94.9958 54.2533 97.9434 54.0963 99.3704C53.7525 102.495 57.0883 105.038 59.6429 105.291C61.701 105.496 64.5129 103.588 66.5263 102.222C67.0122 101.893 67.4515 101.595 67.8226 101.366C68.9918 100.643 71.1569 100.751 73.223 100.853C74.5301 100.918 75.7975 100.981 76.7481 100.831C79.2012 100.443 80.226 97.6489 79.48 94.258C79.1011 92.5356 75.7532 91.3064 72.3596 90.5348Z" fill="#97D4ED"/>
<path d="M83.0049 96.3235C92.6327 95.5889 101.047 92.5598 104.871 83.4356C109.061 73.4407 105.155 62.2631 96.1481 58.4699C87.141 54.6766 76.4431 59.7041 72.2537 69.699C68.6659 78.2588 72.0933 85.7975 77.4092 92.9225C75.7008 93.2528 74.0665 93.6815 73.604 94.1421C72.5911 95.1505 73.1337 97.0234 74.0278 97.857C74.7481 98.5286 76.3501 98.6704 77.4972 98.7719C77.774 98.7964 78.0243 98.8185 78.2293 98.8452C78.8754 98.9293 79.6636 99.5977 80.4157 100.235C80.8915 100.639 81.3529 101.03 81.7547 101.253C82.7917 101.83 83.9686 101.137 84.6447 99.717C84.9881 98.9956 84.0698 97.5851 83.0049 96.3235Z" fill="#B0D066"/>
<path d="M54 95.2715C56.8256 93.3503 63.6369 89.4619 68.2769 89.2775C72.9169 89.0931 80.0256 93.1966 83 95.2715" stroke="black" stroke-opacity="0.35" stroke-width="2" stroke-linecap="round" stroke-linejoin="round"/>
</svg>
