<svg width="312" height="119" viewBox="0 0 312 119" fill="none" xmlns="http://www.w3.org/2000/svg">
<path d="M134.694 51.424C134.309 51.424 133.844 51.4183 133.3 51.407C132.767 51.3957 132.223 51.373 131.668 51.339C131.124 51.3163 130.642 51.2767 130.223 51.22C130.2 50.4607 130.178 49.4917 130.155 48.313C130.132 47.1343 130.11 45.8877 130.087 44.573C130.076 43.2583 130.07 42.023 130.07 40.867C130.07 39.1217 130.081 37.229 130.104 35.189C130.138 33.149 130.172 31.0183 130.206 28.797C130.376 28.7857 130.642 28.78 131.005 28.78C131.379 28.7687 131.793 28.7573 132.246 28.746C132.699 28.7233 133.141 28.712 133.572 28.712C134.014 28.7007 134.382 28.695 134.677 28.695C134.734 29.9643 134.785 31.347 134.83 32.843C134.875 34.339 134.909 35.8407 134.932 37.348C134.955 38.8553 134.966 40.2833 134.966 41.632C134.966 42.278 134.96 42.9807 134.949 43.74C134.949 44.488 134.943 45.2473 134.932 46.018C134.921 46.7887 134.904 47.531 134.881 48.245C134.858 48.9477 134.83 49.5767 134.796 50.132C134.762 50.6873 134.728 51.118 134.694 51.424ZM164.35 47.582C164.032 48.1713 163.534 48.755 162.854 49.333C162.174 49.8997 161.335 50.3757 160.338 50.761C159.34 51.135 158.196 51.322 156.904 51.322C155.192 51.322 153.719 50.897 152.484 50.047C151.248 49.197 150.291 48.0637 149.611 46.647C148.942 45.219 148.608 43.6607 148.608 41.972C148.608 40.1587 148.948 38.5437 149.628 37.127C150.319 35.7103 151.294 34.594 152.552 33.778C153.821 32.962 155.34 32.554 157.108 32.554C158.173 32.554 159.136 32.7183 159.998 33.047C160.87 33.3757 161.635 33.8403 162.293 34.441C162.95 35.0303 163.483 35.7103 163.891 36.481L160.644 38.385C160.598 38.2717 160.508 38.1073 160.372 37.892C160.247 37.6653 160.054 37.4273 159.794 37.178C159.544 36.9287 159.21 36.719 158.791 36.549C158.383 36.379 157.873 36.294 157.261 36.294C156.354 36.294 155.589 36.498 154.966 36.906C154.354 37.3027 153.883 37.8693 153.555 38.606C153.237 39.3313 153.079 40.187 153.079 41.173C153.079 42.023 153.203 42.8617 153.453 43.689C153.702 44.505 154.116 45.185 154.694 45.729C155.283 46.2617 156.071 46.528 157.057 46.528C157.646 46.528 158.184 46.4317 158.672 46.239C159.159 46.035 159.573 45.8027 159.913 45.542C160.264 45.27 160.542 45.015 160.746 44.777C160.961 44.5277 161.097 44.3633 161.154 44.284L164.35 47.582ZM175.525 51.594C172.533 51.594 170.295 50.7893 168.81 49.18C167.326 47.5593 166.583 45.219 166.583 42.159C166.583 40.1643 166.963 38.4927 167.722 37.144C168.493 35.7953 169.558 34.781 170.918 34.101C172.29 33.4097 173.871 33.064 175.661 33.064C177.52 33.064 179.056 33.489 180.268 34.339C181.492 35.189 182.405 36.3677 183.005 37.875C183.617 39.3823 183.923 41.1277 183.923 43.111C183.923 44.8223 183.595 46.3127 182.937 47.582C182.28 48.8513 181.328 49.8373 180.081 50.54C178.835 51.2427 177.316 51.594 175.525 51.594ZM175.355 47.327C176.081 47.327 176.71 47.2023 177.242 46.953C177.786 46.6923 178.24 46.3353 178.602 45.882C178.965 45.4173 179.231 44.8847 179.401 44.284C179.583 43.6833 179.673 43.043 179.673 42.363C179.673 41.2297 179.515 40.2267 179.197 39.354C178.88 38.4813 178.404 37.8013 177.769 37.314C177.146 36.8153 176.364 36.566 175.423 36.566C174.449 36.566 173.638 36.8097 172.992 37.297C172.358 37.7843 171.887 38.436 171.581 39.252C171.275 40.068 171.122 40.9577 171.122 41.921C171.122 43.4963 171.479 44.794 172.193 45.814C172.919 46.8227 173.973 47.327 175.355 47.327ZM196.093 50.268C195.799 50.6193 195.249 50.965 194.444 51.305C193.64 51.6563 192.727 51.832 191.707 51.832C190.347 51.832 189.322 51.5033 188.63 50.846C187.95 50.1773 187.491 49.248 187.253 48.058C187.027 46.868 186.913 45.4853 186.913 43.91C186.913 42.7653 186.925 41.581 186.947 40.357C186.97 39.1217 186.998 37.8863 187.032 36.651C187.078 35.4157 187.123 34.2143 187.168 33.047C187.214 31.8683 187.259 30.7577 187.304 29.715C187.361 28.661 187.412 27.7147 187.457 26.876C188.171 26.8193 188.829 26.791 189.429 26.791C189.826 26.791 190.217 26.8023 190.602 26.825C190.988 26.8477 191.401 26.8817 191.843 26.927C191.787 27.8563 191.724 28.9103 191.656 30.089C191.6 31.2563 191.537 32.4633 191.469 33.71C191.413 34.9567 191.356 36.1807 191.299 37.382C191.243 38.572 191.197 39.6657 191.163 40.663C191.141 41.6603 191.129 42.4763 191.129 43.111C191.129 43.8817 191.163 44.6127 191.231 45.304C191.311 45.984 191.475 46.5393 191.724 46.97C191.974 47.4007 192.348 47.616 192.846 47.616C193.254 47.616 193.583 47.5253 193.832 47.344C194.082 47.1513 194.286 46.902 194.444 46.596C194.524 46.7207 194.643 46.9587 194.801 47.31C194.96 47.6613 195.13 48.0467 195.311 48.466C195.504 48.8853 195.674 49.265 195.821 49.605C195.969 49.945 196.059 50.166 196.093 50.268ZM206.404 51.594C203.412 51.594 201.174 50.7893 199.689 49.18C198.205 47.5593 197.462 45.219 197.462 42.159C197.462 40.1643 197.842 38.4927 198.601 37.144C199.372 35.7953 200.437 34.781 201.797 34.101C203.169 33.4097 204.75 33.064 206.54 33.064C208.399 33.064 209.935 33.489 211.147 34.339C212.371 35.189 213.284 36.3677 213.884 37.875C214.496 39.3823 214.802 41.1277 214.802 43.111C214.802 44.8223 214.474 46.3127 213.816 47.582C213.159 48.8513 212.207 49.8373 210.96 50.54C209.714 51.2427 208.195 51.594 206.404 51.594ZM206.234 47.327C206.96 47.327 207.589 47.2023 208.121 46.953C208.665 46.6923 209.119 46.3353 209.481 45.882C209.844 45.4173 210.11 44.8847 210.28 44.284C210.462 43.6833 210.552 43.043 210.552 42.363C210.552 41.2297 210.394 40.2267 210.076 39.354C209.759 38.4813 209.283 37.8013 208.648 37.314C208.025 36.8153 207.243 36.566 206.302 36.566C205.328 36.566 204.517 36.8097 203.871 37.297C203.237 37.7843 202.766 38.436 202.46 39.252C202.154 40.068 202.001 40.9577 202.001 41.921C202.001 43.4963 202.358 44.794 203.072 45.814C203.798 46.8227 204.852 47.327 206.234 47.327ZM221.787 35.988C222.07 35.4553 222.501 34.9567 223.079 34.492C223.657 34.0273 224.326 33.6477 225.085 33.353C225.856 33.0583 226.66 32.911 227.499 32.911C228.02 32.911 228.542 32.962 229.063 33.064C229.596 33.166 229.992 33.302 230.253 33.472L229.318 38.215C229.069 38.113 228.74 37.9997 228.332 37.875C227.924 37.7503 227.448 37.688 226.904 37.688C226.326 37.688 225.759 37.7843 225.204 37.977C224.66 38.1697 224.156 38.4417 223.691 38.793C223.226 39.1443 222.83 39.558 222.501 40.034C222.626 40.748 222.756 41.6377 222.892 42.703C223.039 43.757 223.175 44.845 223.3 45.967C223.425 47.0777 223.527 48.092 223.606 49.01C223.697 49.928 223.742 50.608 223.742 51.05C223.039 51.1407 222.223 51.1973 221.294 51.22C220.376 51.2427 219.498 51.2483 218.659 51.237C218.659 50.251 218.631 49.1573 218.574 47.956C218.529 46.7547 218.461 45.5137 218.37 44.233C218.279 42.941 218.166 41.666 218.03 40.408C217.894 39.1387 217.735 37.943 217.554 36.821C217.384 35.699 217.197 34.713 216.993 33.863C217.458 33.727 217.973 33.5967 218.54 33.472C219.118 33.3473 219.645 33.2453 220.121 33.166C220.597 33.0867 220.903 33.0413 221.039 33.03C221.175 33.37 221.328 33.8517 221.498 34.475C221.668 35.087 221.764 35.5913 221.787 35.988ZM238.055 51.152C237.873 51.1633 237.545 51.186 237.069 51.22C236.593 51.254 236.1 51.271 235.59 51.271C235.182 51.271 234.779 51.2597 234.383 51.237C233.986 51.2143 233.601 51.1803 233.227 51.135C233.283 50.8403 233.346 50.234 233.414 49.316C233.482 48.398 233.55 47.3157 233.618 46.069C233.697 44.8223 233.771 43.536 233.839 42.21C233.907 40.8727 233.958 39.626 233.992 38.47C234.037 37.3027 234.06 36.3733 234.06 35.682C234.252 35.6707 234.541 35.6537 234.927 35.631C235.312 35.6083 235.731 35.5913 236.185 35.58C236.638 35.5573 237.069 35.5403 237.477 35.529C237.885 35.5177 238.202 35.512 238.429 35.512C238.485 35.852 238.525 36.3847 238.548 37.11C238.582 37.8353 238.599 38.6513 238.599 39.558C238.599 40.6007 238.582 41.717 238.548 42.907C238.525 44.0857 238.491 45.236 238.446 46.358C238.4 47.48 238.338 48.4717 238.259 49.333C238.191 50.183 238.123 50.7893 238.055 51.152ZM236.44 33.166C235.499 33.166 234.723 32.8883 234.111 32.333C233.499 31.7777 233.193 31.058 233.193 30.174C233.193 29.5507 233.34 29.0237 233.635 28.593C233.929 28.151 234.315 27.8167 234.791 27.59C235.267 27.352 235.771 27.233 236.304 27.233C237.165 27.233 237.868 27.522 238.412 28.1C238.967 28.6667 239.245 29.392 239.245 30.276C239.245 31.0807 238.978 31.7663 238.446 32.333C237.924 32.8883 237.256 33.166 236.44 33.166ZM141.46 85.118C141.449 84.948 141.437 84.6987 141.426 84.37C141.415 84.0413 141.403 83.7127 141.392 83.384C141.392 83.044 141.392 82.7833 141.392 82.602C141.279 82.772 141.08 82.9987 140.797 83.282C140.514 83.5653 140.134 83.8487 139.658 84.132C139.193 84.4153 138.621 84.659 137.941 84.863C137.261 85.0557 136.462 85.152 135.544 85.152C134.093 85.152 132.841 84.812 131.787 84.132C130.744 83.4407 129.945 82.5 129.39 81.31C128.835 80.12 128.557 78.7657 128.557 77.247C128.557 75.7737 128.835 74.4023 129.39 73.133C129.957 71.8637 130.801 70.838 131.923 70.056C133.056 69.2627 134.473 68.866 136.173 68.866C137.08 68.866 137.896 68.968 138.621 69.172C139.358 69.376 139.975 69.6253 140.474 69.92C140.984 70.2147 141.341 70.5037 141.545 70.787C141.579 70.1977 141.619 69.512 141.664 68.73C141.721 67.948 141.783 67.132 141.851 66.282C141.919 65.432 141.981 64.6217 142.038 63.851C142.106 63.0803 142.168 62.4173 142.225 61.862C142.282 61.2953 142.321 60.91 142.344 60.706C142.933 60.706 143.591 60.74 144.316 60.808C145.053 60.8647 145.699 60.9667 146.254 61.114C146.05 63.7207 145.891 66.3273 145.778 68.934C145.676 71.5293 145.602 74.1757 145.557 76.873C145.523 79.559 145.506 82.3527 145.506 85.254C145.268 85.254 144.883 85.2483 144.35 85.237C143.829 85.2257 143.29 85.2087 142.735 85.186C142.191 85.1633 141.766 85.1407 141.46 85.118ZM136.768 80.817C137.357 80.817 137.89 80.7377 138.366 80.579C138.853 80.4203 139.284 80.222 139.658 79.984C140.043 79.7347 140.372 79.4797 140.644 79.219C140.916 78.947 141.131 78.6977 141.29 78.471C141.29 78.233 141.29 77.9213 141.29 77.536C141.29 77.1507 141.29 76.7483 141.29 76.329C141.301 75.9097 141.307 75.5187 141.307 75.156C141.318 74.7933 141.33 74.5157 141.341 74.323C141.092 74.085 140.729 73.847 140.253 73.609C139.788 73.3597 139.261 73.1557 138.672 72.997C138.094 72.827 137.493 72.742 136.87 72.742C135.589 72.742 134.598 73.1217 133.895 73.881C133.204 74.629 132.858 75.6263 132.858 76.873C132.858 78.165 133.192 79.1453 133.861 79.814C134.541 80.4827 135.51 80.817 136.768 80.817ZM154.98 85.152C154.799 85.1633 154.47 85.186 153.994 85.22C153.518 85.254 153.025 85.271 152.515 85.271C152.107 85.271 151.705 85.2597 151.308 85.237C150.912 85.2143 150.526 85.1803 150.152 85.135C150.209 84.8403 150.271 84.234 150.339 83.316C150.407 82.398 150.475 81.3157 150.543 80.069C150.623 78.8223 150.696 77.536 150.764 76.21C150.832 74.8727 150.883 73.626 150.917 72.47C150.963 71.3027 150.985 70.3733 150.985 69.682C151.178 69.6707 151.467 69.6537 151.852 69.631C152.238 69.6083 152.657 69.5913 153.11 69.58C153.564 69.5573 153.994 69.5403 154.402 69.529C154.81 69.5177 155.128 69.512 155.354 69.512C155.411 69.852 155.451 70.3847 155.473 71.11C155.507 71.8353 155.524 72.6513 155.524 73.558C155.524 74.6007 155.507 75.717 155.473 76.907C155.451 78.0857 155.417 79.236 155.371 80.358C155.326 81.48 155.264 82.4717 155.184 83.333C155.116 84.183 155.048 84.7893 154.98 85.152ZM153.365 67.166C152.425 67.166 151.648 66.8883 151.036 66.333C150.424 65.7777 150.118 65.058 150.118 64.174C150.118 63.5507 150.266 63.0237 150.56 62.593C150.855 62.151 151.24 61.8167 151.716 61.59C152.192 61.352 152.697 61.233 153.229 61.233C154.091 61.233 154.793 61.522 155.337 62.1C155.893 62.6667 156.17 63.392 156.17 64.276C156.17 65.0807 155.904 65.7663 155.371 66.333C154.85 66.8883 154.181 67.166 153.365 67.166ZM170.784 85.237C170.784 84.285 170.789 83.1177 170.801 81.735C170.812 80.3523 170.829 78.862 170.852 77.264C170.886 75.666 170.92 74.051 170.954 72.419C170.988 70.787 171.027 69.24 171.073 67.778C171.118 66.316 171.169 65.0353 171.226 63.936C171.713 63.8907 172.28 63.8567 172.926 63.834C173.583 63.8 174.229 63.7773 174.864 63.766C175.498 63.7433 176.037 63.732 176.479 63.732C176.921 63.7207 177.17 63.715 177.227 63.715C177.249 63.7603 177.334 64.0493 177.482 64.582C177.64 65.1147 177.844 65.806 178.094 66.656C178.343 67.506 178.609 68.441 178.893 69.461C179.187 70.481 179.482 71.5237 179.777 72.589C180.071 73.643 180.343 74.6403 180.593 75.581C180.853 76.5217 181.069 77.332 181.239 78.012C181.409 78.692 181.511 79.1567 181.545 79.406L181.001 79.474C181.125 79.134 181.307 78.5787 181.545 77.808C181.794 77.026 182.077 76.125 182.395 75.105C182.712 74.0737 183.035 72.9913 183.364 71.858C183.704 70.7247 184.027 69.6253 184.333 68.56C184.65 67.4833 184.922 66.5257 185.149 65.687C185.375 64.837 185.534 64.191 185.625 63.749C186.055 63.749 186.599 63.7603 187.257 63.783C187.914 63.8057 188.577 63.8397 189.246 63.885C189.914 63.919 190.464 63.9757 190.895 64.055C191.121 65.0977 191.28 66.452 191.371 68.118C191.461 69.7727 191.507 71.5293 191.507 73.388C191.507 74.8273 191.49 76.2893 191.456 77.774C191.422 79.2473 191.371 80.63 191.303 81.922C191.246 83.2027 191.184 84.2737 191.116 85.135C190.628 85.135 190.096 85.1293 189.518 85.118C188.951 85.0953 188.407 85.067 187.886 85.033C187.376 84.9877 186.968 84.9593 186.662 84.948C186.73 84.0753 186.786 83.0157 186.832 81.769C186.888 80.511 186.934 79.219 186.968 77.893C186.99 77.077 187.007 76.244 187.019 75.394C187.03 74.544 187.041 73.7677 187.053 73.065C187.064 72.351 187.07 71.807 187.07 71.433C186.945 71.909 186.758 72.538 186.509 73.32C186.271 74.102 185.999 74.9633 185.693 75.904C185.387 76.8447 185.064 77.7967 184.724 78.76C184.395 79.7233 184.078 80.6357 183.772 81.497C183.477 82.3583 183.211 83.1007 182.973 83.724C182.746 84.336 182.576 84.7553 182.463 84.982C182.315 84.9933 182.094 85.0047 181.8 85.016C181.516 85.016 181.295 85.016 181.137 85.016C180.853 85.016 180.564 85.0047 180.27 84.982C179.975 84.948 179.652 84.914 179.301 84.88C179.278 84.744 179.204 84.4323 179.08 83.945C178.955 83.4577 178.796 82.8457 178.604 82.109C178.411 81.3723 178.201 80.562 177.975 79.678C177.748 78.794 177.516 77.893 177.278 76.975C177.04 76.0457 176.802 75.1503 176.564 74.289C176.337 73.4277 176.127 72.6513 175.935 71.96C175.753 71.2573 175.6 70.702 175.476 70.294C175.476 71.382 175.476 72.5663 175.476 73.847C175.487 75.1163 175.493 76.38 175.493 77.638C175.493 78.896 175.493 80.0577 175.493 81.123C175.504 82.1883 175.51 83.0837 175.51 83.809C175.51 84.523 175.51 84.9707 175.51 85.152C175.158 85.1633 174.711 85.1747 174.167 85.186C173.623 85.1973 173.056 85.2087 172.467 85.22C171.877 85.2313 171.316 85.237 170.784 85.237ZM202.237 85.475C200.832 85.475 199.551 85.288 198.395 84.914C197.239 84.54 196.316 83.928 195.624 83.078C194.944 82.2167 194.604 81.0833 194.604 79.678C194.604 78.2727 194.995 77.1393 195.777 76.278C196.571 75.4053 197.619 74.7707 198.922 74.374C200.226 73.966 201.654 73.762 203.206 73.762C203.841 73.762 204.459 73.8073 205.059 73.898C205.66 73.9887 206.187 74.102 206.64 74.238C207.094 74.3627 207.411 74.4817 207.592 74.595C207.57 74.2663 207.507 73.9263 207.405 73.575C207.303 73.2237 207.15 72.9233 206.946 72.674C206.584 72.1187 206.068 71.654 205.399 71.28C204.742 70.906 203.886 70.719 202.832 70.719C201.756 70.719 200.821 70.957 200.027 71.433C199.234 71.909 198.639 72.4587 198.242 73.082L194.553 70.702C195.063 69.9767 195.743 69.3363 196.593 68.781C197.443 68.2257 198.412 67.795 199.5 67.489C200.588 67.1717 201.744 67.013 202.968 67.013C204.94 67.013 206.55 67.353 207.796 68.033C209.043 68.713 209.961 69.6423 210.55 70.821C210.834 71.399 211.066 72.0337 211.247 72.725C211.429 73.4163 211.548 74.2323 211.604 75.173C211.638 76.0457 211.667 76.8333 211.689 77.536C211.712 78.2387 211.74 78.879 211.774 79.457C211.797 80.2843 211.893 80.8227 212.063 81.072C212.245 81.31 212.488 81.429 212.794 81.429C213.123 81.429 213.406 81.3213 213.644 81.106C213.882 80.8907 214.03 80.596 214.086 80.222L215.803 83.078C215.701 83.7467 215.356 84.285 214.766 84.693C214.177 85.0897 213.457 85.288 212.607 85.288C211.961 85.288 211.366 85.1747 210.822 84.948C210.278 84.71 209.831 84.404 209.479 84.03C209.139 83.6447 208.941 83.2253 208.884 82.772C208.68 83.1913 208.278 83.6107 207.677 84.03C207.077 84.4493 206.317 84.795 205.399 85.067C204.481 85.339 203.427 85.475 202.237 85.475ZM203.189 81.922C203.79 81.922 204.396 81.8313 205.008 81.65C205.62 81.4687 206.176 81.2307 206.674 80.936C207.184 80.6413 207.587 80.3353 207.881 80.018C207.859 79.542 207.842 79.0887 207.83 78.658C207.83 78.2273 207.836 77.8477 207.847 77.519C207.575 77.417 207.048 77.298 206.266 77.162C205.496 77.0147 204.663 76.941 203.767 76.941C202.974 76.941 202.237 77.0373 201.557 77.23C200.889 77.4113 200.345 77.689 199.925 78.063C199.517 78.4257 199.313 78.8847 199.313 79.44C199.313 80.0747 199.472 80.5733 199.789 80.936C200.118 81.2987 200.571 81.5537 201.149 81.701C201.739 81.8483 202.419 81.922 203.189 81.922ZM228.486 82.636C228.282 83.0893 227.965 83.5767 227.534 84.098C227.115 84.608 226.56 85.0387 225.868 85.39C225.177 85.7527 224.316 85.934 223.284 85.934C221.947 85.934 220.865 85.6507 220.037 85.084C219.21 84.5173 218.604 83.7637 218.218 82.823C217.844 81.871 217.657 80.834 217.657 79.712C217.657 79.1113 217.663 78.454 217.674 77.74C217.697 77.0147 217.72 76.2837 217.742 75.547C217.765 74.799 217.788 74.0907 217.81 73.422C217.844 72.7533 217.873 72.164 217.895 71.654C217.929 71.1327 217.952 70.736 217.963 70.464C217 70.566 216.127 70.6793 215.345 70.804C214.563 70.9173 214.042 71.0023 213.781 71.059C213.679 70.5263 213.6 69.971 213.543 69.393C213.498 68.815 213.464 68.3107 213.441 67.88C213.419 67.4493 213.407 67.1773 213.407 67.064C214.053 66.9733 214.767 66.8883 215.549 66.809C216.331 66.7183 217.136 66.6503 217.963 66.605C217.952 66.2763 217.941 65.8117 217.929 65.211C217.929 64.6103 217.924 64.0607 217.912 63.562C217.901 63.12 217.878 62.6837 217.844 62.253C217.81 61.811 217.782 61.4483 217.759 61.165L222.179 60.808C222.179 60.9553 222.185 61.3067 222.196 61.862C222.219 62.406 222.23 63.0633 222.23 63.834C222.23 64.174 222.23 64.582 222.23 65.058C222.242 65.5227 222.247 65.9647 222.247 66.384C222.621 66.3613 223.058 66.3387 223.556 66.316C224.055 66.2933 224.452 66.2763 224.746 66.265C225.245 66.2423 225.704 66.231 226.123 66.231C226.543 66.231 226.894 66.2367 227.177 66.248C227.461 66.248 227.648 66.248 227.738 66.248C227.806 66.7127 227.846 67.3133 227.857 68.05C227.88 68.7753 227.891 69.4043 227.891 69.937C227.778 69.9257 227.404 69.9257 226.769 69.937C226.135 69.9483 225.511 69.9653 224.899 69.988C224.457 69.9993 223.976 70.022 223.454 70.056C222.933 70.09 222.508 70.124 222.179 70.158C222.168 70.4073 222.151 70.77 222.128 71.246C222.106 71.7107 222.083 72.2377 222.06 72.827C222.049 73.405 222.032 74 222.009 74.612C221.987 75.224 221.97 75.8077 221.958 76.363C221.947 76.9183 221.941 77.3943 221.941 77.791C221.941 78.5277 221.981 79.202 222.06 79.814C222.14 80.426 222.315 80.919 222.587 81.293C222.871 81.6557 223.307 81.837 223.896 81.837C224.293 81.837 224.622 81.7123 224.882 81.463C225.143 81.2137 225.353 80.9247 225.511 80.596C225.681 80.2673 225.823 79.9783 225.936 79.729C226.061 79.899 226.248 80.1313 226.497 80.426C226.747 80.7093 227.007 81.004 227.279 81.31C227.563 81.616 227.812 81.8937 228.027 82.143C228.254 82.381 228.407 82.5453 228.486 82.636ZM244.391 82.636C244.187 83.0893 243.869 83.5767 243.439 84.098C243.019 84.608 242.464 85.0387 241.773 85.39C241.081 85.7527 240.22 85.934 239.189 85.934C237.851 85.934 236.769 85.6507 235.942 85.084C235.114 84.5173 234.508 83.7637 234.123 82.823C233.749 81.871 233.562 80.834 233.562 79.712C233.562 79.1113 233.567 78.454 233.579 77.74C233.601 77.0147 233.624 76.2837 233.647 75.547C233.669 74.799 233.692 74.0907 233.715 73.422C233.749 72.7533 233.777 72.164 233.8 71.654C233.834 71.1327 233.856 70.736 233.868 70.464C232.904 70.566 232.032 70.6793 231.25 70.804C230.468 70.9173 229.946 71.0023 229.686 71.059C229.584 70.5263 229.504 69.971 229.448 69.393C229.402 68.815 229.368 68.3107 229.346 67.88C229.323 67.4493 229.312 67.1773 229.312 67.064C229.958 66.9733 230.672 66.8883 231.454 66.809C232.236 66.7183 233.04 66.6503 233.868 66.605C233.856 66.2763 233.845 65.8117 233.834 65.211C233.834 64.6103 233.828 64.0607 233.817 63.562C233.805 63.12 233.783 62.6837 233.749 62.253C233.715 61.811 233.686 61.4483 233.664 61.165L238.084 60.808C238.084 60.9553 238.089 61.3067 238.101 61.862C238.123 62.406 238.135 63.0633 238.135 63.834C238.135 64.174 238.135 64.582 238.135 65.058C238.146 65.5227 238.152 65.9647 238.152 66.384C238.526 66.3613 238.962 66.3387 239.461 66.316C239.959 66.2933 240.356 66.2763 240.651 66.265C241.149 66.2423 241.608 66.231 242.028 66.231C242.447 66.231 242.798 66.2367 243.082 66.248C243.365 66.248 243.552 66.248 243.643 66.248C243.711 66.7127 243.75 67.3133 243.762 68.05C243.784 68.7753 243.796 69.4043 243.796 69.937C243.682 69.9257 243.308 69.9257 242.674 69.937C242.039 69.9483 241.416 69.9653 240.804 69.988C240.362 69.9993 239.88 70.022 239.359 70.056C238.837 70.09 238.412 70.124 238.084 70.158C238.072 70.4073 238.055 70.77 238.033 71.246C238.01 71.7107 237.987 72.2377 237.965 72.827C237.953 73.405 237.936 74 237.914 74.612C237.891 75.224 237.874 75.8077 237.863 76.363C237.851 76.9183 237.846 77.3943 237.846 77.791C237.846 78.5277 237.885 79.202 237.965 79.814C238.044 80.426 238.22 80.919 238.492 81.293C238.775 81.6557 239.211 81.837 239.801 81.837C240.197 81.837 240.526 81.7123 240.787 81.463C241.047 81.2137 241.257 80.9247 241.416 80.596C241.586 80.2673 241.727 79.9783 241.841 79.729C241.965 79.899 242.152 80.1313 242.402 80.426C242.651 80.7093 242.912 81.004 243.184 81.31C243.467 81.616 243.716 81.8937 243.932 82.143C244.158 82.381 244.311 82.5453 244.391 82.636ZM262.114 81.871C261.83 82.2337 261.451 82.6133 260.975 83.01C260.51 83.3953 259.949 83.7523 259.292 84.081C258.634 84.3983 257.875 84.659 257.014 84.863C256.152 85.067 255.189 85.169 254.124 85.169C252.412 85.169 250.899 84.8347 249.585 84.166C248.281 83.4973 247.261 82.517 246.525 81.225C245.799 79.9217 245.437 78.3123 245.437 76.397C245.437 74.5043 245.822 72.861 246.593 71.467C247.363 70.0617 248.434 68.9737 249.806 68.203C251.177 67.4323 252.764 67.047 254.566 67.047C256.844 67.047 258.634 67.7043 259.938 69.019C261.241 70.3223 261.938 72.113 262.029 74.391C262.04 74.7877 262.034 75.156 262.012 75.496C262 75.8247 261.966 76.1817 261.91 76.567C261.751 76.5557 261.411 76.5443 260.89 76.533C260.368 76.5103 259.773 76.4933 259.105 76.482C258.436 76.4593 257.79 76.4423 257.167 76.431C256.555 76.4197 256.073 76.414 255.722 76.414C254.69 76.414 253.665 76.465 252.645 76.567C251.625 76.6577 250.752 76.7597 250.027 76.873C250.027 77.111 250.044 77.3433 250.078 77.57C250.112 77.7967 250.157 78.012 250.214 78.216C250.384 78.76 250.673 79.2303 251.081 79.627C251.5 80.0123 251.999 80.307 252.577 80.511C253.166 80.715 253.784 80.817 254.43 80.817C255.053 80.817 255.614 80.732 256.113 80.562C256.611 80.392 257.053 80.1767 257.439 79.916C257.835 79.6553 258.181 79.3833 258.476 79.1C258.77 78.8167 259.031 78.5673 259.258 78.352C259.326 78.4087 259.484 78.5617 259.734 78.811C259.983 79.0603 260.266 79.3607 260.584 79.712C260.901 80.0633 261.196 80.4317 261.468 80.817C261.751 81.2023 261.966 81.5537 262.114 81.871ZM250.163 74C250.775 73.898 251.511 73.8073 252.373 73.728C253.245 73.6487 254.248 73.609 255.382 73.609C255.982 73.609 256.504 73.6203 256.946 73.643C257.399 73.6543 257.716 73.6657 257.898 73.677C257.898 73.3937 257.858 73.0877 257.779 72.759C257.677 72.317 257.478 71.892 257.184 71.484C256.9 71.0647 256.526 70.7247 256.062 70.464C255.597 70.2033 255.036 70.073 254.379 70.073C253.563 70.073 252.843 70.2487 252.22 70.6C251.596 70.94 251.103 71.4103 250.741 72.011C250.389 72.6003 250.197 73.2633 250.163 74ZM274.139 85.594C271.147 85.594 268.908 84.7893 267.424 83.18C265.939 81.5593 265.197 79.219 265.197 76.159C265.197 74.1643 265.576 72.4927 266.336 71.144C267.106 69.7953 268.172 68.781 269.532 68.101C270.903 67.4097 272.484 67.064 274.275 67.064C276.133 67.064 277.669 67.489 278.882 68.339C280.106 69.189 281.018 70.3677 281.619 71.875C282.231 73.3823 282.537 75.1277 282.537 77.111C282.537 78.8223 282.208 80.3127 281.551 81.582C280.893 82.8513 279.941 83.8373 278.695 84.54C277.448 85.2427 275.929 85.594 274.139 85.594ZM273.969 81.327C274.694 81.327 275.323 81.2023 275.856 80.953C276.4 80.6923 276.853 80.3353 277.216 79.882C277.578 79.4173 277.845 78.8847 278.015 78.284C278.196 77.6833 278.287 77.043 278.287 76.363C278.287 75.2297 278.128 74.2267 277.811 73.354C277.493 72.4813 277.017 71.8013 276.383 71.314C275.759 70.8153 274.977 70.566 274.037 70.566C273.062 70.566 272.252 70.8097 271.606 71.297C270.971 71.7843 270.501 72.436 270.195 73.252C269.889 74.068 269.736 74.9577 269.736 75.921C269.736 77.4963 270.093 78.794 270.807 79.814C271.532 80.8227 272.586 81.327 273.969 81.327Z" fill="white"/>
<path d="M58.839 94.1095C57.2617 100.642 75.6379 115.427 92.6728 117.169C113.967 119.346 138.823 106.169 154.673 106.169C170.673 106.169 222.561 118.994 256.473 115.884C290.385 112.773 310.673 94.1095 310.673 79.1689" stroke="white" stroke-width="2" stroke-linecap="round" stroke-linejoin="round"/>
<path d="M85.7869 74.7452C101.182 68.3899 113.378 58.9023 114.837 41.824C116.436 23.1159 104.141 6.78486 87.3768 5.34756C70.6122 3.91031 55.7258 17.9111 54.1273 36.6192C52.7583 52.6409 62.3509 63.2315 74.8212 72.1313C72.1948 73.5885 69.7418 75.1682 69.2263 76.1742C68.0975 78.3771 69.9744 81.1733 71.8795 82.0692C73.4142 82.7908 76.115 82.1684 78.049 81.7227C78.5156 81.6152 78.9376 81.5179 79.2878 81.4523C80.3913 81.2456 82.0356 81.9258 83.6047 82.5748C84.5973 82.9853 85.5599 83.3835 86.3363 83.5367C88.3401 83.9323 89.904 82.1618 90.264 79.4606C90.446 78.0884 88.1975 76.2549 85.7869 74.7452Z" fill="#E58F91"/>
<path d="M48.7477 88.4555C53.9083 75.5039 55.3329 62.8645 45.966 52.8345C35.7053 41.8474 18.7784 40.7542 8.15891 50.3928C-2.46066 60.0314 -2.75149 76.7518 7.50931 87.7389C16.2967 97.1484 28.2165 96.8524 40.8002 93.8658C40.1429 96.2744 39.6599 98.6414 39.9616 99.4984C40.6222 101.376 43.3876 101.705 45.0326 101.001C46.3578 100.434 47.5577 98.4254 48.417 96.9864C48.6243 96.6394 48.8118 96.3254 48.9765 96.0734C49.4952 95.2774 50.8593 94.6203 52.161 93.9931C52.9845 93.5962 53.783 93.2114 54.3267 92.8114C55.7299 91.7788 55.5812 89.8622 54.1747 88.1957C53.4603 87.3493 51.0542 87.7657 48.7477 88.4555Z" fill="#E7CF70"/>
<path d="M62.032 85.7035C76.8588 71.4675 86.6992 54.8549 81.0538 33.7673C74.8699 10.6672 53.8684 -3.60891 34.1459 1.88066C14.4235 7.37021 3.44845 30.5467 9.63255 53.6468C14.9286 73.4298 30.3938 81.9911 48.4154 87.2889C46.0455 90.1645 43.9257 93.1121 43.7687 94.5391C43.4249 97.6637 46.7607 100.207 49.3153 100.46C51.3734 100.665 54.1853 98.7567 56.1987 97.3907C56.6846 97.0617 57.1239 96.7637 57.495 96.5347C58.6642 95.8117 60.8293 95.9197 62.8955 96.0217C64.2025 96.0867 65.4699 96.1497 66.4205 95.9997C68.8736 95.6117 69.8984 92.8176 69.1525 89.4267C68.7736 87.7043 65.4256 86.4751 62.032 85.7035Z" fill="#97D4ED"/>
<path d="M72.6782 91.4924C82.306 90.7578 90.7203 87.7287 94.5443 78.6045C98.7343 68.6096 94.8283 57.432 85.8214 53.6388C76.8143 49.8455 66.1164 54.873 61.927 64.8679C58.3392 73.4277 61.7666 80.9664 67.0825 88.0914C65.3741 88.4217 63.7398 88.8504 63.2773 89.311C62.2644 90.3194 62.807 92.1923 63.7011 93.0259C64.4214 93.6975 66.0234 93.8393 67.1705 93.9408C67.4473 93.9653 67.6976 93.9874 67.9026 94.0141C68.5487 94.0982 69.3369 94.7666 70.089 95.4039C70.5648 95.8079 71.0262 96.1989 71.428 96.4219C72.465 96.9989 73.6419 96.3059 74.318 94.8859C74.6614 94.1645 73.7431 92.754 72.6782 91.4924Z" fill="#B0D066"/>
<g filter="url(#filter0_d)">
<path d="M43.6729 90.4404C46.4985 88.5192 53.3098 84.6308 57.9498 84.4464C62.5898 84.262 69.6985 88.3655 72.6729 90.4404" stroke="white" stroke-width="2" stroke-linecap="round" stroke-linejoin="round"/>
</g>
<defs>
<filter id="filter0_d" x="38.6729" y="83.4404" width="39.0002" height="16.0001" filterUnits="userSpaceOnUse" color-interpolation-filters="sRGB">
<feFlood flood-opacity="0" result="BackgroundImageFix"/>
<feColorMatrix in="SourceAlpha" type="matrix" values="0 0 0 0 0 0 0 0 0 0 0 0 0 0 0 0 0 0 127 0"/>
<feOffset dy="4"/>
<feGaussianBlur stdDeviation="2"/>
<feColorMatrix type="matrix" values="0 0 0 0 0 0 0 0 0 0 0 0 0 0 0 0 0 0 0.25 0"/>
<feBlend mode="normal" in2="BackgroundImageFix" result="effect1_dropShadow"/>
<feBlend mode="normal" in="SourceGraphic" in2="effect1_dropShadow" result="shape"/>
</filter>
</defs>
</svg>
